<?xml version="1.0" encoding="utf-8"?>
<!-- Generator: Adobe Illustrator 15.0.2, SVG Export Plug-In  -->
<!DOCTYPE svg PUBLIC "-//W3C//DTD SVG 1.1//EN" "http://www.w3.org/Graphics/SVG/1.1/DTD/svg11.dtd" [
	<!ENTITY ns_flows "http://ns.adobe.com/Flows/1.0/">
]>
<svg version="1.1"
	 xmlns="http://www.w3.org/2000/svg" xmlns:xlink="http://www.w3.org/1999/xlink" xmlns:a="http://ns.adobe.com/AdobeSVGViewerExtensions/3.0/"
	 x="0px" y="0px" width="97px" height="38px" viewBox="-11.351 -5.242 97 38"
	 overflow="visible" enable-background="new -11.351 -5.242 97 38" xml:space="preserve">
<defs>
</defs>
<path d="M0,23.496h2.237V1.541H0V23.496z"/>
<path d="M13.602,27.379h1.851L25.236,0h-1.85L13.602,27.379z"/>
<path d="M36.563,23.496h2.237V1.541h-2.237V23.496z"/>
<path d="M63.494,1.119c-3.255,0-5.973,1.094-8.078,3.252c-2.102,2.156-3.168,4.916-3.168,8.201c0,3.271,1.062,6.02,3.159,8.168
	c2.099,2.151,4.818,3.242,8.087,3.242c3.27,0,5.996-1.092,8.107-3.243c2.108-2.149,3.178-4.897,3.178-8.167
	c0-3.285-1.069-6.045-3.178-8.201C69.489,2.213,66.763,1.119,63.494,1.119z M63.494,21.734c-2.575,0-4.74-0.883-6.434-2.625
	c-1.696-1.742-2.557-3.942-2.557-6.537c0-2.639,0.854-4.849,2.539-6.57c1.682-1.721,3.852-2.594,6.451-2.594
	c2.602,0,4.771,0.873,6.453,2.594c1.684,1.723,2.537,3.934,2.537,6.57c0,2.607-0.855,4.811-2.547,6.548
	C68.25,20.855,66.082,21.734,63.494,21.734z"/>
</svg>
