<?xml version="1.0" encoding="utf-8"?>
<!-- Generator: Adobe Illustrator 15.0.2, SVG Export Plug-In  -->
<!DOCTYPE svg PUBLIC "-//W3C//DTD SVG 1.1//EN" "http://www.w3.org/Graphics/SVG/1.1/DTD/svg11.dtd" [
	<!ENTITY ns_flows "http://ns.adobe.com/Flows/1.0/">
]>
<svg version="1.1"
	 xmlns="http://www.w3.org/2000/svg" xmlns:xlink="http://www.w3.org/1999/xlink" xmlns:a="http://ns.adobe.com/AdobeSVGViewerExtensions/3.0/"
	 x="0px" y="0px" width="97px" height="38px" viewBox="-12.408 -5.311 97 38"
	 overflow="visible" enable-background="new -12.408 -5.311 97 38" xml:space="preserve">
<defs>
</defs>
<path fill="#FFFFFF" d="M0,23.495h2.238V1.54H0V23.495z"/>
<path fill="#FFFFFF" d="M13.603,27.378h1.852L25.238,0h-1.852L13.603,27.378z"/>
<path fill="#FFFFFF" d="M36.564,23.495h2.237V1.54h-2.237V23.495z"/>
<path fill="#FFFFFF" d="M55.34,23.369h17.324v-2.248H57.588l-0.021-0.189c-0.038-0.331-0.062-0.572-0.067-0.723
	c-0.006-0.152-0.01-0.292-0.01-0.422c0-1.404,0.385-2.526,1.146-3.338c0.752-0.805,2.584-1.746,5.604-2.879
	c0.203-0.071,0.509-0.19,0.92-0.357c4.718-1.761,7.106-3.808,7.106-6.086c0-1.722-0.71-3.165-2.11-4.291
	c-1.419-1.14-3.286-1.718-5.547-1.718c-1.579,0-3.143,0.317-4.65,0.944c-1.461,0.609-2.948,1.551-4.425,2.803l1.314,1.916
	c1.459-1.137,2.839-1.985,4.104-2.524c1.323-0.562,2.636-0.849,3.902-0.849c1.469,0,2.696,0.342,3.647,1.017
	c0.974,0.694,1.469,1.589,1.469,2.659c0,1.324-1.948,2.695-5.956,4.191c-1.284,0.479-2.298,0.858-3.041,1.14
	c-2.104,0.838-3.6,1.878-4.439,3.09c-0.839,1.208-1.265,2.997-1.265,5.316c0,0.098,0.009,0.454,0.028,1.069
	C55.314,22.426,55.329,22.918,55.34,23.369z"/>
</svg>
