<?xml version="1.0" encoding="utf-8"?>
<!-- Generator: Adobe Illustrator 15.0.2, SVG Export Plug-In  -->
<!DOCTYPE svg PUBLIC "-//W3C//DTD SVG 1.1//EN" "http://www.w3.org/Graphics/SVG/1.1/DTD/svg11.dtd" [
	<!ENTITY ns_flows "http://ns.adobe.com/Flows/1.0/">
]>
<svg version="1.1"
	 xmlns="http://www.w3.org/2000/svg" xmlns:xlink="http://www.w3.org/1999/xlink" xmlns:a="http://ns.adobe.com/AdobeSVGViewerExtensions/3.0/"
	 x="0px" y="0px" width="97px" height="38px" viewBox="-13.408 -5.311 97 38"
	 overflow="visible" enable-background="new -13.408 -5.311 97 38" xml:space="preserve">
<defs>
</defs>
<path d="M0,23.496h2.238V1.541H0V23.496z"/>
<path d="M13.603,27.379h1.851L25.238,0h-1.852L13.603,27.379z"/>
<path d="M36.564,23.496h2.238V1.541h-2.238V23.496z"/>
<path d="M55.34,23.369h17.324v-2.248H57.588l-0.021-0.189c-0.038-0.33-0.061-0.572-0.067-0.723
	c-0.006-0.152-0.009-0.291-0.009-0.422c0-1.404,0.385-2.525,1.146-3.338c0.752-0.805,2.584-1.746,5.604-2.879
	c0.203-0.07,0.509-0.189,0.92-0.357c4.717-1.76,7.106-3.807,7.106-6.086c0-1.721-0.71-3.164-2.11-4.291
	c-1.419-1.139-3.286-1.717-5.547-1.717c-1.579,0-3.143,0.317-4.65,0.943c-1.461,0.609-2.948,1.551-4.425,2.803l1.315,1.916
	c1.459-1.137,2.838-1.984,4.104-2.523c1.323-0.562,2.637-0.85,3.902-0.85c1.469,0,2.695,0.342,3.648,1.018
	c0.973,0.693,1.468,1.588,1.468,2.658c0,1.324-1.948,2.695-5.956,4.191c-1.284,0.479-2.298,0.859-3.041,1.141
	c-2.104,0.838-3.6,1.877-4.439,3.09c-0.839,1.207-1.266,2.996-1.266,5.316c0,0.098,0.01,0.453,0.029,1.068
	C55.314,22.426,55.329,22.918,55.34,23.369z"/>
</svg>
