<?xml version="1.0" encoding="utf-8"?>
<!-- Generator: Adobe Illustrator 15.0.2, SVG Export Plug-In  -->
<!DOCTYPE svg PUBLIC "-//W3C//DTD SVG 1.1//EN" "http://www.w3.org/Graphics/SVG/1.1/DTD/svg11.dtd" [
	<!ENTITY ns_flows "http://ns.adobe.com/Flows/1.0/">
]>
<svg version="1.1"
	 xmlns="http://www.w3.org/2000/svg" xmlns:xlink="http://www.w3.org/1999/xlink" xmlns:a="http://ns.adobe.com/AdobeSVGViewerExtensions/3.0/"
	 x="0px" y="0px" width="97px" height="38px" viewBox="-11.7 -5.311 97 38"
	 overflow="visible" enable-background="new -11.7 -5.311 97 38" xml:space="preserve">
<defs>
</defs>
<path fill="#FFFFFF" d="M0,23.496h2.238V1.54H0V23.496z"/>
<path fill="#FFFFFF" d="M13.603,27.379h1.85L25.237,0h-1.851L13.603,27.379z"/>
<path fill="#FFFFFF" d="M36.563,23.496h2.238V1.54h-2.238V23.496z"/>
<path fill="#FFFFFF" d="M53.089,19.034c1.539,1.675,3.207,2.926,4.958,3.72c1.8,0.814,3.868,1.228,6.146,1.228
	c2.865,0,5.261-0.731,7.117-2.174c1.839-1.428,2.771-3.187,2.771-5.228c0-1.174-0.273-2.205-0.816-3.066
	c-0.543-0.862-1.36-1.568-2.43-2.098l-0.298-0.147l0.258-0.218c0.589-0.495,1.029-1.076,1.312-1.725
	c0.281-0.65,0.425-1.391,0.425-2.199c0-1.806-0.67-3.271-1.991-4.355c-1.335-1.097-3.158-1.653-5.421-1.653
	c-1.743,0-3.449,0.302-5.073,0.896c-1.564,0.573-3.042,1.422-4.397,2.521l1.317,2.011c1.3-1.023,2.614-1.804,3.906-2.321
	c1.353-0.542,2.744-0.816,4.134-0.816c1.57,0,2.849,0.339,3.798,1.007c0.977,0.688,1.472,1.6,1.472,2.712
	c0,1.104-0.413,1.925-1.225,2.442c-0.787,0.504-1.986,0.749-3.666,0.749c-0.344,0-0.611-0.004-0.802-0.011
	c-0.105-0.005-0.205-0.009-0.299-0.015v2.23h0.684c2.255,0,3.964,0.336,5.079,0.999c1.154,0.686,1.74,1.742,1.74,3.142
	c0,1.41-0.755,2.625-2.241,3.612c-1.456,0.967-3.309,1.457-5.504,1.457c-1.809,0-3.486-0.368-4.986-1.096
	c-1.445-0.699-2.987-1.864-4.59-3.463L53.089,19.034z"/>
</svg>
