<?xml version="1.0" encoding="utf-8"?>
<!-- Generator: Adobe Illustrator 15.0.2, SVG Export Plug-In  -->
<!DOCTYPE svg PUBLIC "-//W3C//DTD SVG 1.1//EN" "http://www.w3.org/Graphics/SVG/1.1/DTD/svg11.dtd" [
	<!ENTITY ns_flows "http://ns.adobe.com/Flows/1.0/">
]>
<svg version="1.1"
	 xmlns="http://www.w3.org/2000/svg" xmlns:xlink="http://www.w3.org/1999/xlink" xmlns:a="http://ns.adobe.com/AdobeSVGViewerExtensions/3.0/"
	 x="0px" y="0px" width="97px" height="38px" viewBox="-25.585 -5.311 97 38"
	 overflow="visible" enable-background="new -25.585 -5.311 97 38" xml:space="preserve">
<defs>
</defs>
<path fill="#FFFFFF" d="M0,23.496h2.237V1.541H0V23.496z"/>
<path fill="#FFFFFF" d="M13.603,27.379h1.85L25.237,0h-1.852L13.603,27.379z"/>
<path fill="#FFFFFF" d="M32.432,23.37h17.322v-2.248H34.68l-0.022-0.19c-0.038-0.331-0.061-0.572-0.068-0.724
	c-0.006-0.151-0.009-0.292-0.009-0.421c0-1.403,0.385-2.527,1.146-3.338c0.752-0.804,2.585-1.746,5.604-2.879
	c0.203-0.071,0.509-0.189,0.92-0.356c4.718-1.76,7.107-3.807,7.107-6.086c0-1.72-0.711-3.164-2.112-4.291
	c-1.418-1.14-3.284-1.718-5.545-1.718c-1.578,0-3.144,0.318-4.65,0.945c-1.46,0.608-2.948,1.55-4.425,2.802l1.314,1.916
	c1.458-1.135,2.837-1.984,4.104-2.524c1.322-0.563,2.636-0.849,3.902-0.849c1.471,0,2.697,0.342,3.646,1.018
	c0.976,0.694,1.471,1.588,1.471,2.659c0,1.324-1.948,2.695-5.956,4.192c-1.284,0.479-2.299,0.858-3.041,1.139
	c-2.104,0.838-3.6,1.878-4.44,3.09c-0.839,1.208-1.264,2.996-1.264,5.315c0,0.098,0.01,0.455,0.028,1.069
	C32.405,22.426,32.42,22.918,32.432,23.37z"/>
</svg>
