<?xml version="1.0" encoding="utf-8"?>
<!-- Generator: Adobe Illustrator 15.0.2, SVG Export Plug-In  -->
<!DOCTYPE svg PUBLIC "-//W3C//DTD SVG 1.1//EN" "http://www.w3.org/Graphics/SVG/1.1/DTD/svg11.dtd" [
	<!ENTITY ns_flows "http://ns.adobe.com/Flows/1.0/">
]>
<svg version="1.1"
	 xmlns="http://www.w3.org/2000/svg" xmlns:xlink="http://www.w3.org/1999/xlink" xmlns:a="http://ns.adobe.com/AdobeSVGViewerExtensions/3.0/"
	 x="0px" y="0px" width="97px" height="38px" viewBox="-23.863 -5.359 97 38"
	 overflow="visible" enable-background="new -23.863 -5.359 97 38" xml:space="preserve">
<defs>
</defs>
<path d="M0,23.496h2.237V1.54H0V23.496z"/>
<path d="M13.603,27.379h1.85L25.237,0h-1.852L13.603,27.379z"/>
<path d="M32.432,23.37h17.322v-2.248H34.68l-0.022-0.189c-0.039-0.331-0.061-0.572-0.068-0.725c-0.006-0.15-0.009-0.291-0.009-0.42
	c0-1.404,0.385-2.527,1.146-3.339c0.753-0.804,2.586-1.745,5.604-2.88c0.204-0.07,0.51-0.189,0.922-0.355
	c4.717-1.761,7.105-3.808,7.105-6.087c0-1.72-0.71-3.164-2.111-4.29c-1.418-1.141-3.284-1.719-5.545-1.719
	c-1.578,0-3.143,0.318-4.65,0.945c-1.46,0.608-2.948,1.551-4.425,2.803l1.314,1.916c1.458-1.136,2.837-1.984,4.104-2.525
	c1.321-0.562,2.635-0.849,3.902-0.849c1.469,0,2.697,0.343,3.646,1.019c0.976,0.693,1.47,1.588,1.47,2.658
	c0,1.324-1.947,2.695-5.955,4.191c-1.285,0.479-2.299,0.858-3.041,1.14c-2.104,0.838-3.6,1.878-4.441,3.09
	c-0.838,1.208-1.262,2.996-1.262,5.315c0,0.098,0.008,0.455,0.027,1.069C32.405,22.426,32.419,22.919,32.432,23.37z"/>
</svg>
