<?xml version="1.0" encoding="utf-8"?>
<!-- Generator: Adobe Illustrator 15.0.2, SVG Export Plug-In  -->
<!DOCTYPE svg PUBLIC "-//W3C//DTD SVG 1.1//EN" "http://www.w3.org/Graphics/SVG/1.1/DTD/svg11.dtd" [
	<!ENTITY ns_flows "http://ns.adobe.com/Flows/1.0/">
]>
<svg version="1.1"
	 xmlns="http://www.w3.org/2000/svg" xmlns:xlink="http://www.w3.org/1999/xlink" xmlns:a="http://ns.adobe.com/AdobeSVGViewerExtensions/3.0/"
	 x="0px" y="0px" width="97px" height="38px" viewBox="-24.154 -4.242 97 38"
	 overflow="visible" enable-background="new -24.154 -4.242 97 38" xml:space="preserve">
<defs>
</defs>
<path d="M0,23.496h2.237V1.541H0V23.496z"/>
<path d="M13.603,27.378h1.85L25.237,0h-1.852L13.603,27.378z"/>
<path d="M30.179,19.035c1.541,1.676,3.207,2.926,4.959,3.719c1.799,0.814,3.867,1.229,6.146,1.229c2.863,0,5.258-0.732,7.117-2.176
	c1.838-1.428,2.77-3.186,2.77-5.227c0-1.174-0.274-2.206-0.816-3.066c-0.543-0.863-1.359-1.568-2.43-2.098l-0.299-0.148l0.258-0.217
	c0.59-0.496,1.031-1.076,1.312-1.725c0.282-0.65,0.425-1.391,0.425-2.199c0-1.806-0.669-3.271-1.989-4.355
	c-1.336-1.096-3.16-1.652-5.422-1.652c-1.746,0-3.452,0.301-5.073,0.895c-1.563,0.574-3.042,1.422-4.399,2.521l1.318,2.011
	c1.301-1.022,2.613-1.805,3.906-2.321c1.355-0.543,2.746-0.816,4.135-0.816c1.569,0,2.848,0.338,3.797,1.006
	c0.977,0.688,1.472,1.602,1.472,2.713c0,1.104-0.413,1.925-1.224,2.443c-0.779,0.497-2.014,0.748-3.666,0.748
	c-0.345,0-0.611-0.003-0.802-0.011c-0.105-0.004-0.206-0.009-0.3-0.015v2.23h0.685c2.254,0,3.962,0.336,5.078,0.998
	c1.154,0.687,1.739,1.744,1.739,3.143c0,1.41-0.754,2.625-2.24,3.612c-1.456,0.967-3.308,1.457-5.503,1.457
	c-1.812,0-3.489-0.368-4.987-1.095c-1.445-0.699-2.988-1.864-4.59-3.464L30.179,19.035z"/>
</svg>
