<?xml version="1.0" encoding="utf-8"?>
<!-- Generator: Adobe Illustrator 15.0.2, SVG Export Plug-In  -->
<!DOCTYPE svg PUBLIC "-//W3C//DTD SVG 1.1//EN" "http://www.w3.org/Graphics/SVG/1.1/DTD/svg11.dtd" [
	<!ENTITY ns_flows "http://ns.adobe.com/Flows/1.0/">
]>
<svg version="1.1"
	 xmlns="http://www.w3.org/2000/svg" xmlns:xlink="http://www.w3.org/1999/xlink" xmlns:a="http://ns.adobe.com/AdobeSVGViewerExtensions/3.0/"
	 x="0px" y="0px" width="97px" height="38px" viewBox="-23.155 -4.242 97 38"
	 overflow="visible" enable-background="new -23.155 -4.242 97 38" xml:space="preserve">
<defs>
</defs>
<path fill="#FFFFFF" d="M0,23.496h2.237V1.541H0V23.496z"/>
<path fill="#FFFFFF" d="M13.603,27.379h1.85L25.237,0h-1.852L13.603,27.379z"/>
<path fill="#FFFFFF" d="M30.178,19.035c1.541,1.676,3.208,2.927,4.96,3.719c1.799,0.814,3.867,1.229,6.146,1.229
	c2.863,0,5.258-0.732,7.117-2.176c1.838-1.427,2.77-3.186,2.77-5.227c0-1.174-0.274-2.205-0.816-3.065
	c-0.543-0.863-1.36-1.569-2.43-2.099l-0.299-0.147l0.258-0.218c0.59-0.496,1.031-1.076,1.312-1.725
	c0.282-0.649,0.425-1.39,0.425-2.199c0-1.805-0.669-3.271-1.989-4.355c-1.337-1.096-3.16-1.652-5.422-1.652
	c-1.745,0-3.452,0.301-5.073,0.895c-1.563,0.574-3.043,1.422-4.399,2.522l1.318,2.011c1.301-1.023,2.613-1.805,3.906-2.322
	c1.355-0.542,2.746-0.816,4.135-0.816c1.569,0,2.848,0.338,3.797,1.007c0.977,0.688,1.472,1.601,1.472,2.712
	c0,1.104-0.413,1.926-1.224,2.443c-0.779,0.498-2.014,0.749-3.667,0.749c-0.344,0-0.611-0.003-0.801-0.011
	c-0.105-0.004-0.206-0.01-0.3-0.016v2.23h0.685c2.254,0,3.962,0.336,5.078,0.999c1.154,0.687,1.74,1.743,1.74,3.142
	c0,1.41-0.755,2.625-2.241,3.613c-1.456,0.967-3.308,1.457-5.503,1.457c-1.811,0-3.489-0.369-4.987-1.096
	c-1.445-0.699-2.988-1.863-4.59-3.463L30.178,19.035z"/>
</svg>
