<?xml version="1.0" encoding="utf-8"?>
<!-- Generator: Adobe Illustrator 15.0.2, SVG Export Plug-In  -->
<!DOCTYPE svg PUBLIC "-//W3C//DTD SVG 1.1//EN" "http://www.w3.org/Graphics/SVG/1.1/DTD/svg11.dtd" [
	<!ENTITY ns_flows "http://ns.adobe.com/Flows/1.0/">
]>
<svg version="1.1"
	 xmlns="http://www.w3.org/2000/svg" xmlns:xlink="http://www.w3.org/1999/xlink" xmlns:a="http://ns.adobe.com/AdobeSVGViewerExtensions/3.0/"
	 x="0px" y="0px" width="97px" height="38px" viewBox="-24.209 -5.242 97 38"
	 overflow="visible" enable-background="new -24.209 -5.242 97 38" xml:space="preserve">
<defs>
</defs>
<path fill="#FFFFFF" d="M0,23.496h2.238V1.541H0V23.496z"/>
<path fill="#FFFFFF" d="M13.602,27.379h1.851L25.238,0h-1.852L13.602,27.379z"/>
<path fill="#FFFFFF" d="M32.066,20.027c1.58,1.301,3.188,2.291,4.779,2.943c1.634,0.67,3.332,1.012,5.047,1.012
	c2.646,0,4.862-0.783,6.586-2.324c1.714-1.531,2.583-3.439,2.583-5.67c0-2.297-0.861-4.199-2.561-5.654
	c-1.713-1.467-3.986-2.209-6.759-2.209c-0.866,0-1.779,0.09-2.714,0.27c-0.936,0.18-1.965,0.477-3.06,0.877l-0.27,0.1V3.914h13.474
	V1.625H33.518V12.65h1.363c1.167-0.766,2.308-1.334,3.391-1.689c1.101-0.363,2.269-0.547,3.471-0.547
	c2.062,0,3.761,0.488,5.049,1.453c1.312,0.98,1.977,2.246,1.977,3.764c0,1.705-0.65,3.158-1.934,4.32
	c-1.271,1.154-2.891,1.74-4.809,1.74c-1.406,0-2.839-0.311-4.263-0.924c-1.365-0.588-2.903-1.541-4.574-2.836L32.066,20.027z"/>
</svg>
