<?xml version="1.0" encoding="utf-8"?>
<!-- Generator: Adobe Illustrator 15.0.2, SVG Export Plug-In  -->
<!DOCTYPE svg PUBLIC "-//W3C//DTD SVG 1.1//EN" "http://www.w3.org/Graphics/SVG/1.1/DTD/svg11.dtd" [
	<!ENTITY ns_flows "http://ns.adobe.com/Flows/1.0/">
]>
<svg version="1.1"
	 xmlns="http://www.w3.org/2000/svg" xmlns:xlink="http://www.w3.org/1999/xlink" xmlns:a="http://ns.adobe.com/AdobeSVGViewerExtensions/3.0/"
	 x="0px" y="0px" width="97px" height="38px" viewBox="-23.764 -5.242 97 38"
	 overflow="visible" enable-background="new -23.764 -5.242 97 38" xml:space="preserve">
<defs>
</defs>
<path fill="#FFFFFF" d="M0,23.496h2.237V1.541H0V23.496z"/>
<path fill="#FFFFFF" d="M13.601,27.379h1.852L25.236,0h-1.851L13.601,27.379z"/>
<path fill="#FFFFFF" d="M48.793,10.441c-1.807-1.481-4.148-2.232-6.961-2.232c-1.523,0-3.01,0.209-4.414,0.625
	c-1.409,0.415-2.904,1.083-4.443,1.984l-0.363,0.213l0.062-0.435c0.32-2.212,1.284-3.983,2.863-5.267
	c1.574-1.275,3.583-1.922,5.973-1.922c1.307,0,2.618,0.271,3.901,0.807c1.221,0.508,2.396,1.249,3.495,2.203l1.263-1.691
	C48.852,3.51,47.484,2.6,46.104,2.021c-1.432-0.6-3.015-0.902-4.706-0.902c-3.318,0-6.054,1.059-8.128,3.146
	c-2.07,2.086-3.119,4.824-3.119,8.137c0,3.283,1.137,6.062,3.382,8.26c2.25,2.203,5.156,3.319,8.64,3.319
	c2.798,0,5.078-0.743,6.778-2.21c1.687-1.454,2.541-3.371,2.541-5.697C51.491,13.805,50.584,11.91,48.793,10.441z M47.142,20.064
	c-1.334,1.08-3.005,1.627-4.97,1.627c-2.43,0-4.585-0.764-6.407-2.271c-1.833-1.515-2.885-3.392-3.129-5.578l-0.016-0.136
	l0.109-0.073c1.604-1.072,3.169-1.872,4.647-2.375c1.48-0.504,3.005-0.76,4.53-0.76c2.024,0,3.756,0.539,5.146,1.603
	c1.41,1.079,2.124,2.429,2.124,4.015C49.178,17.643,48.493,18.972,47.142,20.064z"/>
</svg>
