<?xml version="1.0" encoding="utf-8"?>
<!-- Generator: Adobe Illustrator 15.0.2, SVG Export Plug-In  -->
<!DOCTYPE svg PUBLIC "-//W3C//DTD SVG 1.1//EN" "http://www.w3.org/Graphics/SVG/1.1/DTD/svg11.dtd" [
	<!ENTITY ns_flows "http://ns.adobe.com/Flows/1.0/">
]>
<svg version="1.1"
	 xmlns="http://www.w3.org/2000/svg" xmlns:xlink="http://www.w3.org/1999/xlink" xmlns:a="http://ns.adobe.com/AdobeSVGViewerExtensions/3.0/"
	 x="0px" y="0px" width="97px" height="38px" viewBox="-24.993 -5.311 97 38"
	 overflow="visible" enable-background="new -24.993 -5.311 97 38" xml:space="preserve">
<defs>
</defs>
<path d="M0,23.496h2.238V1.54H0V23.496z"/>
<path d="M13.602,27.378h1.851L25.236,0h-1.851L13.602,27.378z"/>
<path d="M48.793,10.441c-1.807-1.482-4.148-2.233-6.961-2.233c-1.523,0-3.01,0.21-4.414,0.625c-1.409,0.415-2.904,1.083-4.443,1.985
	l-0.363,0.213l0.062-0.436c0.32-2.212,1.285-3.983,2.863-5.266c1.574-1.275,3.583-1.922,5.973-1.922
	c1.307,0,2.618,0.271,3.901,0.806c1.221,0.509,2.396,1.249,3.495,2.204l1.263-1.691C48.852,3.51,47.484,2.6,46.104,2.021
	c-1.432-0.599-3.015-0.902-4.706-0.902c-3.318,0-6.054,1.06-8.128,3.147c-2.07,2.086-3.119,4.823-3.119,8.137
	c0,3.283,1.137,6.062,3.382,8.26c2.25,2.202,5.156,3.318,8.64,3.318c2.797,0,5.078-0.742,6.777-2.209
	c1.688-1.455,2.543-3.371,2.543-5.698C51.492,13.805,50.584,11.91,48.793,10.441z M47.143,20.064
	c-1.334,1.079-3.006,1.627-4.971,1.627c-2.43,0-4.584-0.765-6.407-2.271c-1.833-1.516-2.886-3.393-3.129-5.579l-0.016-0.136
	l0.109-0.072c1.604-1.073,3.169-1.873,4.647-2.376c1.48-0.504,3.006-0.759,4.531-0.759c2.023,0,3.756,0.539,5.146,1.602
	c1.41,1.079,2.124,2.43,2.124,4.016C49.178,17.643,48.493,18.971,47.143,20.064z"/>
</svg>
