<?xml version="1.0" encoding="utf-8"?>
<!-- Generator: Adobe Illustrator 15.0.2, SVG Export Plug-In  -->
<!DOCTYPE svg PUBLIC "-//W3C//DTD SVG 1.1//EN" "http://www.w3.org/Graphics/SVG/1.1/DTD/svg11.dtd" [
	<!ENTITY ns_flows "http://ns.adobe.com/Flows/1.0/">
]>
<svg version="1.1"
	 xmlns="http://www.w3.org/2000/svg" xmlns:xlink="http://www.w3.org/1999/xlink" xmlns:a="http://ns.adobe.com/AdobeSVGViewerExtensions/3.0/"
	 x="0px" y="0px" width="97px" height="38px" viewBox="-23.115 -5.242 97 38"
	 overflow="visible" enable-background="new -23.115 -5.242 97 38" xml:space="preserve">
<defs>
</defs>
<path fill="#FFFFFF" d="M0,23.496h2.237V1.54H0V23.496z"/>
<path fill="#FFFFFF" d="M13.602,27.378h1.851L25.237,0h-1.852L13.602,27.378z"/>
<path fill="#FFFFFF" d="M41.554,1.16c-2.581,0-4.648,0.531-6.145,1.578c-1.489,1.043-2.213,2.402-2.213,4.156
	c0,0.773,0.182,1.497,0.539,2.148c0.361,0.658,0.894,1.246,1.583,1.745l0.291,0.211l-0.317,0.162
	c-1.146,0.585-2.021,1.353-2.603,2.278c-0.579,0.923-0.873,2.021-0.873,3.267c0,2.195,0.872,3.972,2.59,5.278
	c1.737,1.325,4.143,1.996,7.147,1.996c2.989,0,5.384-0.674,7.116-2.006c1.712-1.314,2.58-3.102,2.58-5.311
	c0-1.244-0.284-2.33-0.845-3.225c-0.563-0.9-1.436-1.666-2.594-2.279l-0.311-0.164l0.286-0.208c0.688-0.5,1.223-1.087,1.583-1.745
	c0.356-0.651,0.538-1.375,0.538-2.148c0-1.754-0.724-3.113-2.213-4.156C46.199,1.691,44.133,1.16,41.554,1.16z M41.554,21.691
	c-2.247,0-4.061-0.452-5.392-1.342c-1.36-0.91-2.051-2.136-2.051-3.644c0-1.54,0.602-2.675,1.787-3.374
	c1.146-0.678,3.049-1.02,5.655-1.02c2.604,0,4.5,0.339,5.634,1.008c1.174,0.691,1.769,1.831,1.769,3.386
	c0,1.521-0.688,2.751-2.042,3.653C45.589,21.243,43.786,21.691,41.554,21.691z M41.554,10.022c-1.864,0-3.334-0.271-4.37-0.802
	c-1.086-0.559-1.636-1.355-1.636-2.369c0-1.051,0.561-1.903,1.666-2.531c1.064-0.605,2.524-0.912,4.34-0.912
	c1.799,0,3.261,0.303,4.344,0.899c1.126,0.622,1.697,1.449,1.697,2.46c0,1.056-0.547,1.877-1.625,2.441
	C44.939,9.748,43.452,10.022,41.554,10.022z"/>
</svg>
