<?xml version="1.0" encoding="utf-8"?>
<!-- Generator: Adobe Illustrator 15.0.2, SVG Export Plug-In  -->
<!DOCTYPE svg PUBLIC "-//W3C//DTD SVG 1.1//EN" "http://www.w3.org/Graphics/SVG/1.1/DTD/svg11.dtd" [
	<!ENTITY ns_flows "http://ns.adobe.com/Flows/1.0/">
]>
<svg version="1.1"
	 xmlns="http://www.w3.org/2000/svg" xmlns:xlink="http://www.w3.org/1999/xlink" xmlns:a="http://ns.adobe.com/AdobeSVGViewerExtensions/3.0/"
	 x="0px" y="0px" width="97px" height="38px" viewBox="-23.114 -4.359 97 38"
	 overflow="visible" enable-background="new -23.114 -4.359 97 38" xml:space="preserve">
<defs>
</defs>
<path d="M0,23.496h2.237V1.54H0V23.496z"/>
<path d="M13.601,27.378h1.852L25.237,0h-1.852L13.601,27.378z"/>
<path d="M41.554,1.161c-2.58,0-4.648,0.53-6.145,1.578c-1.489,1.043-2.213,2.402-2.213,4.156c0,0.773,0.182,1.496,0.539,2.148
	c0.361,0.658,0.894,1.245,1.583,1.744l0.291,0.211l-0.317,0.162c-1.146,0.586-2.021,1.353-2.604,2.279
	c-0.578,0.922-0.872,2.021-0.872,3.266c0,2.195,0.872,3.972,2.59,5.279c1.737,1.324,4.142,1.996,7.147,1.996
	c2.99,0,5.384-0.675,7.117-2.006c1.711-1.314,2.578-3.102,2.578-5.311c0-1.245-0.283-2.33-0.844-3.226
	c-0.562-0.899-1.436-1.666-2.594-2.278l-0.311-0.164l0.286-0.209c0.688-0.5,1.223-1.086,1.583-1.744
	c0.357-0.652,0.538-1.375,0.538-2.148c0-1.754-0.724-3.113-2.213-4.156C46.199,1.691,44.133,1.161,41.554,1.161z M41.554,21.691
	c-2.248,0-4.061-0.452-5.391-1.341c-1.361-0.91-2.052-2.137-2.052-3.645c0-1.539,0.601-2.675,1.787-3.374
	c1.146-0.677,3.049-1.02,5.655-1.02c2.605,0,4.5,0.339,5.633,1.009c1.174,0.691,1.77,1.83,1.77,3.385
	c0,1.521-0.688,2.751-2.043,3.654C45.589,21.243,43.786,21.691,41.554,21.691z M41.554,10.022c-1.865,0-3.334-0.27-4.37-0.802
	c-1.085-0.558-1.636-1.354-1.636-2.368c0-1.052,0.561-1.904,1.666-2.532c1.064-0.605,2.523-0.912,4.34-0.912
	c1.799,0,3.262,0.303,4.344,0.899c1.126,0.623,1.697,1.449,1.697,2.461c0,1.055-0.547,1.877-1.625,2.44
	C44.938,9.749,43.452,10.022,41.554,10.022z"/>
</svg>
