<?xml version="1.0" encoding="utf-8"?>
<!-- Generator: Adobe Illustrator 15.0.2, SVG Export Plug-In  -->
<!DOCTYPE svg PUBLIC "-//W3C//DTD SVG 1.1//EN" "http://www.w3.org/Graphics/SVG/1.1/DTD/svg11.dtd" [
	<!ENTITY ns_flows "http://ns.adobe.com/Flows/1.0/">
]>
<svg version="1.1"
	 xmlns="http://www.w3.org/2000/svg" xmlns:xlink="http://www.w3.org/1999/xlink" xmlns:a="http://ns.adobe.com/AdobeSVGViewerExtensions/3.0/"
	 x="0px" y="0px" width="97px" height="38px" viewBox="-22.728 -5.311 97 38"
	 overflow="visible" enable-background="new -22.728 -5.311 97 38" xml:space="preserve">
<defs>
</defs>
<path fill="#FFFFFF" d="M0,23.496h2.237V1.541H0V23.496z"/>
<path fill="#FFFFFF" d="M13.602,27.379h1.851L25.237,0h-1.851L13.602,27.379z"/>
<path fill="#FFFFFF" d="M31.971,20.355c1.307,1.217,2.673,2.129,4.063,2.713c1.443,0.605,3.04,0.913,4.743,0.913
	c3.319,0,6.053-1.062,8.126-3.159c2.071-2.092,3.121-4.825,3.121-8.125c0-3.282-1.137-6.062-3.382-8.26
	c-2.25-2.202-5.157-3.318-8.64-3.318c-2.798,0-5.085,0.743-6.797,2.209c-1.699,1.455-2.561,3.373-2.561,5.698
	c0,2.254,0.914,4.146,2.717,5.621c1.818,1.489,4.167,2.244,6.981,2.244c1.55,0,3.048-0.206,4.452-0.614
	c1.409-0.409,2.891-1.066,4.405-1.954l0.363-0.213l-0.063,0.436c-0.322,2.198-1.286,3.96-2.864,5.234
	c-1.573,1.269-3.583,1.911-5.972,1.911c-1.317,0-2.636-0.268-3.92-0.795c-1.224-0.504-2.394-1.242-3.479-2.196L31.971,20.355z
	 M40.267,14.645c-2.037,0-3.776-0.539-5.171-1.603c-1.419-1.079-2.137-2.429-2.137-4.016c0-1.54,0.688-2.88,2.045-3.98
	c1.341-1.087,3.01-1.638,4.961-1.638c2.429,0,4.585,0.765,6.409,2.271c1.83,1.514,2.883,3.385,3.128,5.558l0.015,0.135l-0.107,0.073
	c-1.633,1.102-3.203,1.92-4.665,2.428C43.275,14.385,41.77,14.645,40.267,14.645z"/>
</svg>
