<?xml version="1.0" encoding="utf-8"?>
<!-- Generator: Adobe Illustrator 15.0.2, SVG Export Plug-In  -->
<!DOCTYPE svg PUBLIC "-//W3C//DTD SVG 1.1//EN" "http://www.w3.org/Graphics/SVG/1.1/DTD/svg11.dtd" [
	<!ENTITY ns_flows "http://ns.adobe.com/Flows/1.0/">
]>
<svg version="1.1"
	 xmlns="http://www.w3.org/2000/svg" xmlns:xlink="http://www.w3.org/1999/xlink" xmlns:a="http://ns.adobe.com/AdobeSVGViewerExtensions/3.0/"
	 x="0px" y="0px" width="97px" height="38px" viewBox="-23.727 -5.242 97 38"
	 overflow="visible" enable-background="new -23.727 -5.242 97 38" xml:space="preserve">
<defs>
</defs>
<path d="M0,23.496h2.237V1.54H0V23.496z"/>
<path d="M13.602,27.379h1.851L25.236,0h-1.85L13.602,27.379z"/>
<path d="M31.971,20.355c1.307,1.216,2.672,2.129,4.063,2.713c1.443,0.605,3.04,0.912,4.743,0.912c3.319,0,6.053-1.062,8.127-3.158
	c2.07-2.092,3.12-4.826,3.12-8.125c0-3.283-1.137-6.062-3.382-8.26c-2.25-2.203-5.157-3.319-8.64-3.319
	c-2.798,0-5.085,0.743-6.797,2.21c-1.699,1.455-2.562,3.373-2.562,5.697c0,2.254,0.914,4.146,2.719,5.621
	c1.817,1.49,4.166,2.244,6.98,2.244c1.55,0,3.048-0.206,4.452-0.613c1.409-0.41,2.891-1.067,4.405-1.955l0.363-0.213l-0.063,0.436
	c-0.322,2.199-1.286,3.96-2.864,5.234c-1.574,1.27-3.583,1.912-5.973,1.912c-1.316,0-2.635-0.268-3.919-0.795
	c-1.224-0.504-2.394-1.242-3.479-2.197L31.971,20.355z M40.268,14.644c-2.038,0-3.777-0.538-5.172-1.603
	c-1.419-1.078-2.137-2.429-2.137-4.016c0-1.54,0.688-2.879,2.045-3.98c1.34-1.086,3.01-1.637,4.961-1.637
	c2.429,0,4.584,0.764,6.409,2.271c1.83,1.514,2.884,3.384,3.128,5.557l0.015,0.135l-0.107,0.074
	c-1.634,1.102-3.202,1.919-4.665,2.428C43.275,14.385,41.77,14.644,40.268,14.644z"/>
</svg>
