<?xml version="1.0" encoding="utf-8"?>
<!-- Generator: Adobe Illustrator 15.0.2, SVG Export Plug-In  -->
<!DOCTYPE svg PUBLIC "-//W3C//DTD SVG 1.1//EN" "http://www.w3.org/Graphics/SVG/1.1/DTD/svg11.dtd" [
	<!ENTITY ns_flows "http://ns.adobe.com/Flows/1.0/">
]>
<svg version="1.1"
	 xmlns="http://www.w3.org/2000/svg" xmlns:xlink="http://www.w3.org/1999/xlink" xmlns:a="http://ns.adobe.com/AdobeSVGViewerExtensions/3.0/"
	 x="0px" y="0px" width="106px" height="38px" viewBox="0 -5.294 106 38"
	 overflow="visible" enable-background="new 0 -5.294 106 38" xml:space="preserve">
<defs>
</defs>
<path d="M11.899,21.848V1.363h1.202l11.956,15.308V1.363h2.305v20.484h-1.169L14.187,6.54v15.308H11.899z"/>
<path stroke="#000000" stroke-width="0.5" stroke-miterlimit="10" d="M37.135,0.25c0.823,0,1.523,0.292,2.1,0.875
	C39.812,1.709,40.1,2.413,40.1,3.236c0,0.824-0.292,1.529-0.875,2.116c-0.584,0.587-1.288,0.881-2.111,0.881
	c-0.838,0-1.543-0.29-2.116-0.87s-0.859-1.289-0.859-2.127c0-0.831,0.292-1.536,0.876-2.116C35.597,0.54,36.304,0.25,37.135,0.25z
	 M39.348,3.247c0-0.619-0.216-1.147-0.648-1.586s-0.955-0.659-1.57-0.659c-0.614,0-1.141,0.22-1.58,0.659S34.89,2.628,34.89,3.247
	c0,0.626,0.218,1.155,0.653,1.587s0.965,0.647,1.586,0.647c0.622,0,1.147-0.216,1.576-0.647S39.348,3.873,39.348,3.247z"/>
<path d="M61.449,21.959V2.272h2.338v19.687H61.449z"/>
<path d="M92.811,7.022c-1.002-0.891-2.062-1.568-3.181-2.032s-2.246-0.696-3.382-0.696c-2.082,0-3.805,0.551-5.168,1.651
	c-1.364,1.101-2.186,2.604-2.464,4.509c1.381-0.804,2.703-1.392,3.967-1.763c1.263-0.371,2.58-0.557,3.949-0.557
	c2.538,0,4.626,0.668,6.262,2.004c1.637,1.336,2.455,3.037,2.455,5.103c0,2.115-0.771,3.835-2.312,5.158
	c-1.542,1.324-3.577,1.985-6.104,1.985c-3.14,0-5.726-0.989-7.757-2.969c-2.032-1.979-3.048-4.447-3.048-7.403
	c0-2.981,0.938-5.412,2.813-7.292c1.876-1.88,4.312-2.82,7.307-2.82c1.524,0,2.933,0.269,4.225,0.807
	c1.291,0.538,2.549,1.382,3.773,2.533L92.811,7.022z M78.583,13.257c0.212,1.88,1.11,3.473,2.697,4.778
	c1.586,1.305,3.438,1.958,5.553,1.958c1.703,0,3.131-0.464,4.283-1.392s1.729-2.035,1.729-3.321c0-1.336-0.602-2.461-1.804-3.377
	c-1.202-0.915-2.684-1.373-4.442-1.373c-1.336,0-2.652,0.22-3.949,0.659C81.353,11.627,79.997,12.317,78.583,13.257z"/>
<rect y="44.809" fill="none" width="105.979" height="31.708"/>
<text transform="matrix(0.9 0 0 1 20.5322 65.6582)" stroke="#E6E4DE" stroke-width="0.25" stroke-miterlimit="10" font-family="'EngraversGothicBT-Regular'" font-size="38" letter-spacing="3.333">N</text>
<text transform="matrix(1 0 0 1 44.9092 59.6582)" stroke="#000000" stroke-width="0.5" stroke-miterlimit="10" font-family="'EngraversGothicBT-Regular'" font-size="22">°</text>
<text transform="matrix(0.9 0 0 1 52.1494 65.6582)" font-family="'EngraversGothicBT-Regular'" font-size="50" letter-spacing="-4.444"> </text>
<text transform="matrix(0.9 0 0 1 62.6348 65.6582)" stroke="#E6E4DE" stroke-width="0.25" stroke-miterlimit="10" font-family="'EngraversGothicBT-Regular'" font-size="38">9</text>
</svg>
