<?xml version="1.0" encoding="utf-8"?>
<!-- Generator: Adobe Illustrator 15.0.2, SVG Export Plug-In  -->
<!DOCTYPE svg PUBLIC "-//W3C//DTD SVG 1.1//EN" "http://www.w3.org/Graphics/SVG/1.1/DTD/svg11.dtd" [
	<!ENTITY ns_flows "http://ns.adobe.com/Flows/1.0/">
]>
<svg version="1.1"
	 xmlns="http://www.w3.org/2000/svg" xmlns:xlink="http://www.w3.org/1999/xlink" xmlns:a="http://ns.adobe.com/AdobeSVGViewerExtensions/3.0/"
	 x="0px" y="0px" width="106px" height="38px" viewBox="0 -5.294 106 38"
	 overflow="visible" enable-background="new 0 -5.294 106 38" xml:space="preserve">
<defs>
</defs>
<path d="M11.899,21.848V1.363h1.202l11.956,15.308V1.363h2.305v20.484h-1.169L14.187,6.54v15.308H11.899z"/>
<path stroke="#000000" stroke-width="0.5" stroke-miterlimit="10" d="M37.135,0.25c0.823,0,1.523,0.292,2.1,0.875
	C39.812,1.709,40.1,2.413,40.1,3.236c0,0.824-0.292,1.529-0.875,2.116c-0.584,0.587-1.288,0.881-2.111,0.881
	c-0.838,0-1.543-0.29-2.116-0.87s-0.859-1.289-0.859-2.127c0-0.831,0.292-1.536,0.876-2.116C35.597,0.54,36.304,0.25,37.135,0.25z
	 M39.348,3.247c0-0.619-0.216-1.147-0.648-1.586s-0.955-0.659-1.57-0.659c-0.614,0-1.141,0.22-1.58,0.659S34.89,2.628,34.89,3.247
	c0,0.626,0.218,1.155,0.653,1.587s0.965,0.647,1.586,0.647c0.622,0,1.147-0.216,1.576-0.647S39.348,3.873,39.348,3.247z"/>
<path d="M61.449,21.959V2.272h2.338v19.687H61.449z"/>
<path d="M85.43,22.386c-2.95,0-5.374-0.968-7.272-2.904c-1.898-1.936-2.847-4.375-2.847-7.32c0-2.956,0.951-5.405,2.855-7.348
	c1.903-1.942,4.325-2.913,7.264-2.913c2.95,0,5.38,0.971,7.289,2.913c1.909,1.942,2.864,4.392,2.864,7.348
	c0,2.944-0.955,5.384-2.864,7.32C90.81,21.418,88.38,22.386,85.43,22.386z M85.43,20.029c2.249,0,4.105-0.748,5.569-2.245
	c1.464-1.497,2.196-3.371,2.196-5.622c0-2.276-0.729-4.156-2.188-5.641c-1.459-1.484-3.318-2.227-5.578-2.227
	s-4.119,0.742-5.577,2.227c-1.459,1.484-2.188,3.365-2.188,5.641c0,2.239,0.734,4.11,2.204,5.613S83.192,20.029,85.43,20.029z"/>
<rect y="44.809" fill="none" width="105.979" height="31.708"/>
<text transform="matrix(0.9 0 0 1 20.5322 65.6582)" stroke="#f5f5f5" stroke-width="0.25" stroke-miterlimit="10" font-family="'EngraversGothicBT-Regular'" font-size="38" letter-spacing="3.333">N</text>
<text transform="matrix(1 0 0 1 44.9092 59.6582)" stroke="#000000" stroke-width="0.5" stroke-miterlimit="10" font-family="'EngraversGothicBT-Regular'" font-size="22">°</text>
<text transform="matrix(0.9 0 0 1 52.1494 65.6582)" font-family="'EngraversGothicBT-Regular'" font-size="50" letter-spacing="-4.444"> </text>
<text transform="matrix(0.9 0 0 1 62.6348 65.6582)" stroke="#f5f5f5" stroke-width="0.25" stroke-miterlimit="10" font-family="'EngraversGothicBT-Regular'" font-size="38">9</text>
</svg>
