<?xml version="1.0" encoding="utf-8"?>
<!-- Generator: Adobe Illustrator 15.0.2, SVG Export Plug-In  -->
<!DOCTYPE svg PUBLIC "-//W3C//DTD SVG 1.1//EN" "http://www.w3.org/Graphics/SVG/1.1/DTD/svg11.dtd" [
	<!ENTITY ns_flows "http://ns.adobe.com/Flows/1.0/">
]>
<svg version="1.1"
	 xmlns="http://www.w3.org/2000/svg" xmlns:xlink="http://www.w3.org/1999/xlink" xmlns:a="http://ns.adobe.com/AdobeSVGViewerExtensions/3.0/"
	 x="0px" y="0px" width="106px" height="38px" viewBox="0 -5.294 106 38"
	 overflow="visible" enable-background="new 0 -5.294 106 38" xml:space="preserve">
<defs>
</defs>
<path d="M11.899,21.848V1.363h1.202l11.956,15.308V1.363h2.305v20.484h-1.169L14.187,6.54v15.308H11.899z"/>
<path stroke="#000000" stroke-width="0.5" stroke-miterlimit="10" d="M37.135,0.25c0.823,0,1.523,0.292,2.1,0.875
	C39.812,1.709,40.1,2.413,40.1,3.236c0,0.824-0.292,1.529-0.875,2.116c-0.584,0.587-1.288,0.881-2.111,0.881
	c-0.838,0-1.543-0.29-2.116-0.87s-0.859-1.289-0.859-2.127c0-0.831,0.292-1.536,0.876-2.116C35.597,0.54,36.304,0.25,37.135,0.25z
	 M39.348,3.247c0-0.619-0.216-1.147-0.648-1.586s-0.955-0.659-1.57-0.659c-0.614,0-1.141,0.22-1.58,0.659S34.89,2.628,34.89,3.247
	c0,0.626,0.218,1.155,0.653,1.587s0.965,0.647,1.586,0.647c0.622,0,1.147-0.216,1.576-0.647S39.348,3.873,39.348,3.247z"/>
<path d="M61.449,21.959V2.272h2.338v19.687H61.449z"/>
<path d="M77.431,15.929c1.459,1.472,2.842,2.523,4.15,3.154c1.308,0.631,2.752,0.946,4.333,0.946c1.915,0,3.504-0.417,4.768-1.252
	s1.896-1.84,1.896-3.015c0-1.163-0.481-2.028-1.444-2.598c-0.963-0.569-2.43-0.854-4.4-0.854h-0.785V9.954
	c0.134,0.013,0.284,0.022,0.451,0.028c0.167,0.006,0.4,0.009,0.701,0.009c1.437,0,2.485-0.21,3.148-0.631
	c0.662-0.42,0.993-1.082,0.993-1.985c0-0.915-0.406-1.657-1.219-2.227c-0.813-0.569-1.898-0.854-3.257-0.854
	c-1.213,0-2.41,0.235-3.59,0.705c-1.181,0.47-2.366,1.182-3.558,2.134l-1.369-2.078c1.258-1.039,2.616-1.824,4.075-2.356
	c1.458-0.532,2.972-0.798,4.542-0.798c2.048,0,3.682,0.498,4.901,1.494c1.219,0.996,1.828,2.323,1.828,3.98
	c0,0.742-0.131,1.414-0.393,2.013c-0.262,0.6-0.665,1.129-1.211,1.586c0.98,0.482,1.721,1.12,2.222,1.911
	c0.501,0.792,0.751,1.726,0.751,2.802c0,1.868-0.841,3.451-2.521,4.75s-3.812,1.948-6.396,1.948c-2.049,0-3.883-0.365-5.503-1.095
	c-1.619-0.729-3.137-1.874-4.55-3.433L77.431,15.929z"/>
<rect y="44.809" fill="none" width="105.979" height="31.708"/>
<text transform="matrix(0.9 0 0 1 20.5322 65.6582)" stroke="#f5f5f5" stroke-width="0.25" stroke-miterlimit="10" font-family="'EngraversGothicBT-Regular'" font-size="38" letter-spacing="3.333">N</text>
<text transform="matrix(1 0 0 1 44.9092 59.6582)" stroke="#000000" stroke-width="0.5" stroke-miterlimit="10" font-family="'EngraversGothicBT-Regular'" font-size="22">°</text>
<text transform="matrix(0.9 0 0 1 52.1494 65.6582)" font-family="'EngraversGothicBT-Regular'" font-size="50" letter-spacing="-4.444"> </text>
<text transform="matrix(0.9 0 0 1 62.6348 65.6582)" stroke="#f5f5f5" stroke-width="0.25" stroke-miterlimit="10" font-family="'EngraversGothicBT-Regular'" font-size="38">9</text>
</svg>
