<?xml version="1.0" encoding="utf-8"?>
<!-- Generator: Adobe Illustrator 15.0.2, SVG Export Plug-In  -->
<!DOCTYPE svg PUBLIC "-//W3C//DTD SVG 1.1//EN" "http://www.w3.org/Graphics/SVG/1.1/DTD/svg11.dtd" [
	<!ENTITY ns_flows "http://ns.adobe.com/Flows/1.0/">
]>
<svg version="1.1"
	 xmlns="http://www.w3.org/2000/svg" xmlns:xlink="http://www.w3.org/1999/xlink" xmlns:a="http://ns.adobe.com/AdobeSVGViewerExtensions/3.0/"
	 x="0px" y="0px" width="106px" height="38px" viewBox="0 -5.294 106 38"
	 overflow="visible" enable-background="new 0 -5.294 106 38" xml:space="preserve">
<defs>
</defs>
<path d="M11.899,21.848V1.363h1.202l11.956,15.308V1.363h2.305v20.484h-1.169L14.187,6.54v15.308H11.899z"/>
<path stroke="#000000" stroke-width="0.5" stroke-miterlimit="10" d="M37.135,0.25c0.823,0,1.523,0.292,2.1,0.875
	C39.812,1.709,40.1,2.413,40.1,3.236c0,0.824-0.292,1.529-0.875,2.116c-0.584,0.587-1.288,0.881-2.111,0.881
	c-0.838,0-1.543-0.29-2.116-0.87s-0.859-1.289-0.859-2.127c0-0.831,0.292-1.536,0.876-2.116C35.597,0.54,36.304,0.25,37.135,0.25z
	 M39.348,3.247c0-0.619-0.216-1.147-0.648-1.586s-0.955-0.659-1.57-0.659c-0.614,0-1.141,0.22-1.58,0.659S34.89,2.628,34.89,3.247
	c0,0.626,0.218,1.155,0.653,1.587s0.965,0.647,1.586,0.647c0.622,0,1.147-0.216,1.576-0.647S39.348,3.873,39.348,3.247z"/>
<path d="M61.449,21.959V2.272h2.338v19.687H61.449z"/>
<path d="M78.082,17.283c0.991,0.891,2.046,1.565,3.165,2.022c1.118,0.458,2.251,0.687,3.397,0.687c2.082,0,3.805-0.547,5.169-1.642
	c1.363-1.095,2.185-2.588,2.463-4.481c-1.358,0.792-2.669,1.37-3.933,1.735c-1.264,0.365-2.591,0.547-3.982,0.547
	c-2.538,0-4.632-0.671-6.279-2.013c-1.647-1.342-2.472-3.04-2.472-5.093c0-2.115,0.777-3.834,2.33-5.158
	c1.553-1.323,3.593-1.985,6.12-1.985c3.14,0,5.725,0.99,7.757,2.969c2.031,1.979,3.048,4.447,3.048,7.403
	c0,2.969-0.938,5.396-2.814,7.283c-1.876,1.887-4.311,2.83-7.306,2.83c-1.536,0-2.956-0.272-4.258-0.816
	c-1.303-0.544-2.562-1.392-3.774-2.542L78.082,17.283z M92.276,11.012c-0.211-1.868-1.11-3.454-2.696-4.759
	c-1.587-1.305-3.438-1.958-5.553-1.958c-1.692,0-3.117,0.467-4.275,1.401c-1.158,0.934-1.736,2.05-1.736,3.349
	c0,1.336,0.604,2.462,1.812,3.377c1.208,0.916,2.697,1.373,4.467,1.373c1.313,0,2.614-0.223,3.899-0.668
	C89.479,12.682,90.841,11.977,92.276,11.012z"/>
<rect y="44.809" fill="none" width="105.979" height="31.708"/>
<text transform="matrix(0.9 0 0 1 20.5322 65.6582)" stroke="#f5f5f5" stroke-width="0.25" stroke-miterlimit="10" font-family="'EngraversGothicBT-Regular'" font-size="38" letter-spacing="3.333">N</text>
<text transform="matrix(1 0 0 1 44.9092 59.6582)" stroke="#000000" stroke-width="0.5" stroke-miterlimit="10" font-family="'EngraversGothicBT-Regular'" font-size="22">°</text>
<text transform="matrix(0.9 0 0 1 52.1494 65.6582)" font-family="'EngraversGothicBT-Regular'" font-size="50" letter-spacing="-4.444"> </text>
<text transform="matrix(0.9 0 0 1 62.6348 65.6582)" stroke="#f5f5f5" stroke-width="0.25" stroke-miterlimit="10" font-family="'EngraversGothicBT-Regular'" font-size="38">9</text>
</svg>
