<?xml version="1.0" encoding="utf-8"?>
<!-- Generator: Adobe Illustrator 19.2.1, SVG Export Plug-In . SVG Version: 6.00 Build 0)  -->
<svg version="1.1" id="Ebene_1" xmlns="http://www.w3.org/2000/svg" xmlns:xlink="http://www.w3.org/1999/xlink" x="0px" y="0px"
	 viewBox="0 0 106 38" style="enable-background:new 0 0 106 38;" xml:space="preserve">
<style type="text/css">
	.st0{enable-background:new    ;}
</style>
<g class="st0">
	<path d="M37.1,21.8L28.6,6.3v15.6h-2.5V1.2h2.5L37,16.6V1.2h2.5v20.7H37.1z"/>
</g>
<g class="st0">
	<path d="M43.2,5.3c0-0.4,0.1-0.8,0.3-1.2c0.2-0.4,0.4-0.7,0.7-1c0.3-0.3,0.6-0.5,1-0.7c0.4-0.2,0.8-0.3,1.2-0.3s0.8,0.1,1.2,0.3
		c0.4,0.2,0.7,0.4,1,0.7c0.3,0.3,0.5,0.6,0.7,1c0.2,0.4,0.3,0.8,0.3,1.2s-0.1,0.8-0.3,1.2c-0.2,0.4-0.4,0.7-0.7,1
		c-0.3,0.3-0.6,0.5-1,0.7c-0.4,0.2-0.8,0.3-1.2,0.3s-0.8-0.1-1.2-0.3c-0.4-0.2-0.7-0.4-1-0.7c-0.3-0.3-0.5-0.6-0.7-1
		C43.3,6.1,43.2,5.7,43.2,5.3z M44.9,5.3c0,0.4,0.1,0.8,0.4,1.1c0.3,0.3,0.6,0.4,1.1,0.4s0.8-0.1,1.1-0.4s0.4-0.6,0.4-1.1
		s-0.1-0.8-0.4-1.1s-0.6-0.4-1.1-0.4s-0.8,0.1-1.1,0.4C45,4.5,44.9,4.8,44.9,5.3z"/>
</g>
<g class="st0">
	<path d="M63.4,11c0.4-0.5,0.7-1,0.9-1.6c0.2-0.5,0.3-1.1,0.3-1.6c0-0.5-0.1-0.9-0.2-1.3c-0.2-0.4-0.4-0.7-0.7-1
		c-0.3-0.3-0.6-0.5-1-0.6c-0.4-0.1-0.8-0.2-1.2-0.2c-0.8,0-1.5,0.3-2.1,0.8c-0.6,0.5-1,1.3-1.1,2.3L56,7.2c0.1-0.8,0.3-1.5,0.7-2.1
		s0.7-1.2,1.2-1.6c0.5-0.4,1.1-0.8,1.7-1c0.6-0.2,1.3-0.4,2-0.4c0.8,0,1.5,0.1,2.2,0.4c0.7,0.3,1.2,0.7,1.8,1.2
		c0.5,0.5,0.9,1.1,1.2,1.8c0.3,0.7,0.4,1.5,0.4,2.4c0,1-0.2,1.9-0.5,2.7c-0.4,0.9-0.8,1.6-1.4,2.4c-0.6,0.7-1,1.3-1.4,1.8
		c-0.3,0.4-0.7,0.9-1,1.3c-0.3,0.4-0.6,0.8-1,1.3c-0.4,0.5-0.8,1.1-1.5,1.9h6.7v2.7H56.3v-1.2L63.4,11z"/>
	<path d="M71.8,7c0-0.7,0.1-1.3,0.4-1.9c0.2-0.6,0.6-1.1,1-1.6C73.5,3,74,2.7,74.6,2.4C75.1,2.1,75.8,2,76.5,2
		c0.7,0,1.3,0.1,1.9,0.4c0.6,0.3,1.1,0.6,1.5,1.1c0.4,0.5,0.8,1,1,1.6c0.2,0.6,0.4,1.3,0.4,1.9c0,0.7-0.1,1.3-0.4,1.9
		s-0.6,1.1-1,1.5c0.8,0.6,1.5,1.3,2,2.2c0.5,0.9,0.7,1.9,0.7,3c0,0.9-0.2,1.7-0.5,2.5c-0.3,0.8-0.7,1.4-1.3,2
		c-0.5,0.6-1.2,1-1.9,1.4s-1.5,0.5-2.4,0.5c-0.9,0-1.7-0.2-2.4-0.5c-0.7-0.3-1.4-0.8-1.9-1.4c-0.5-0.6-1-1.3-1.3-2
		c-0.3-0.8-0.5-1.6-0.5-2.5c0-1.1,0.2-2.1,0.7-3c0.5-0.9,1.1-1.7,1.9-2.2c-0.4-0.4-0.7-0.9-0.9-1.5S71.8,7.7,71.8,7z M72.8,15.7
		c0,0.5,0.1,1,0.3,1.5c0.2,0.5,0.4,0.8,0.8,1.2c0.3,0.3,0.7,0.6,1.1,0.8c0.4,0.2,0.9,0.3,1.4,0.3c0.5,0,1-0.1,1.4-0.3
		c0.4-0.2,0.8-0.5,1.1-0.8c0.3-0.3,0.6-0.7,0.8-1.2s0.3-0.9,0.3-1.5c0-0.5-0.1-1-0.3-1.4c-0.2-0.5-0.4-0.9-0.8-1.2
		c-0.3-0.3-0.7-0.6-1.1-0.8c-0.4-0.2-0.9-0.3-1.4-0.3h-0.2c-0.5,0-0.9,0.1-1.4,0.3c-0.4,0.2-0.8,0.5-1.1,0.8
		c-0.3,0.3-0.6,0.7-0.7,1.2C72.9,14.8,72.8,15.2,72.8,15.7z M74.2,7c0,0.6,0.2,1.2,0.6,1.6c0.4,0.5,0.9,0.7,1.6,0.8h0.2
		c0.6,0,1.2-0.3,1.6-0.8c0.4-0.5,0.6-1,0.6-1.6s-0.2-1.2-0.7-1.6c-0.4-0.4-1-0.7-1.7-0.7c-0.6,0-1.2,0.2-1.6,0.7
		C74.4,5.8,74.2,6.4,74.2,7z"/>
</g>
</svg>
