<?xml version="1.0" encoding="utf-8"?>
<!-- Generator: Adobe Illustrator 15.0.2, SVG Export Plug-In  -->
<!DOCTYPE svg PUBLIC "-//W3C//DTD SVG 1.1//EN" "http://www.w3.org/Graphics/SVG/1.1/DTD/svg11.dtd" [
	<!ENTITY ns_flows "http://ns.adobe.com/Flows/1.0/">
]>
<svg version="1.1"
	 xmlns="http://www.w3.org/2000/svg" xmlns:xlink="http://www.w3.org/1999/xlink" xmlns:a="http://ns.adobe.com/AdobeSVGViewerExtensions/3.0/"
	 x="0px" y="0px" width="106px" height="38px" viewBox="0 -5.294 106 38"
	 overflow="visible" enable-background="new 0 -5.294 106 38" xml:space="preserve">
<defs>
</defs>
<path d="M23.305,21.848V1.363h1.202l11.956,15.308V1.363h2.305v20.484h-1.169L25.592,6.54v15.308H23.305z"/>
<path stroke="#000000" stroke-width="0.5" stroke-miterlimit="10" d="M48.54,0.25c0.823,0,1.523,0.292,2.1,0.875
	c0.577,0.584,0.865,1.288,0.865,2.111c0,0.824-0.292,1.529-0.875,2.116c-0.584,0.587-1.288,0.881-2.111,0.881
	c-0.838,0-1.543-0.29-2.116-0.87s-0.859-1.289-0.859-2.127c0-0.831,0.292-1.536,0.876-2.116C47.002,0.54,47.709,0.25,48.54,0.25z
	 M50.753,3.247c0-0.619-0.216-1.147-0.648-1.586s-0.955-0.659-1.57-0.659c-0.614,0-1.141,0.22-1.58,0.659s-0.659,0.968-0.659,1.586
	c0,0.626,0.218,1.155,0.653,1.587s0.965,0.647,1.586,0.647c0.622,0,1.147-0.216,1.576-0.647S50.753,3.873,50.753,3.247z"/>
<path d="M66.643,21.848c-0.011-0.445-0.025-0.94-0.042-1.484c-0.017-0.544-0.024-0.859-0.024-0.946c0-2.09,0.384-3.686,1.152-4.787
	c0.768-1.101,2.104-2.028,4.008-2.783c0.656-0.247,1.553-0.581,2.688-1.002c3.429-1.274,5.143-2.443,5.143-3.507
	c0-0.878-0.406-1.605-1.219-2.18s-1.854-0.863-3.123-0.863c-1.102,0-2.229,0.245-3.381,0.733c-1.152,0.489-2.396,1.259-3.732,2.31
	l-1.369-1.985c1.369-1.175,2.732-2.044,4.091-2.607c1.358-0.562,2.75-0.844,4.175-0.844c2.049,0,3.719,0.517,5.01,1.549
	c1.291,1.033,1.938,2.341,1.938,3.924c0,2.103-2.132,3.946-6.396,5.529c-0.367,0.148-0.64,0.254-0.817,0.315
	c-2.617,0.978-4.245,1.806-4.885,2.486c-0.641,0.681-0.961,1.614-0.961,2.802c0,0.111,0.003,0.232,0.009,0.362
	s0.025,0.337,0.059,0.622h13.343v2.356H66.643z"/>
<rect y="44.809" fill="none" width="105.979" height="31.708"/>
<text transform="matrix(0.9 0 0 1 20.5322 65.6582)" stroke="#E6E4DE" stroke-width="0.25" stroke-miterlimit="10" font-family="'EngraversGothicBT-Regular'" font-size="38" letter-spacing="3.333">N</text>
<text transform="matrix(1 0 0 1 44.9092 59.6582)" stroke="#000000" stroke-width="0.5" stroke-miterlimit="10" font-family="'EngraversGothicBT-Regular'" font-size="22">°</text>
<text transform="matrix(0.9 0 0 1 52.1494 65.6582)" font-family="'EngraversGothicBT-Regular'" font-size="50" letter-spacing="-4.444"> </text>
<text transform="matrix(0.9 0 0 1 62.6348 65.6582)" stroke="#E6E4DE" stroke-width="0.25" stroke-miterlimit="10" font-family="'EngraversGothicBT-Regular'" font-size="38">9</text>
</svg>
