<?xml version="1.0" encoding="utf-8"?>
<!-- Generator: Adobe Illustrator 19.2.1, SVG Export Plug-In . SVG Version: 6.00 Build 0)  -->
<svg version="1.1" id="Ebene_1" xmlns="http://www.w3.org/2000/svg" xmlns:xlink="http://www.w3.org/1999/xlink" x="0px" y="0px"
	 viewBox="0 0 106 38" style="enable-background:new 0 0 106 38;" xml:space="preserve">
<style type="text/css">
	.st0{enable-background:new    ;}
</style>
<g class="st0">
	<path d="M37.1,21.8L28.6,6.3v15.6h-2.5V1.2h2.5L37,16.6V1.2h2.5v20.7H37.1z"/>
</g>
<g class="st0">
	<path d="M43.2,5.3c0-0.4,0.1-0.8,0.3-1.2c0.2-0.4,0.4-0.7,0.7-1c0.3-0.3,0.6-0.5,1-0.7c0.4-0.2,0.8-0.3,1.2-0.3s0.8,0.1,1.2,0.3
		c0.4,0.2,0.7,0.4,1,0.7c0.3,0.3,0.5,0.6,0.7,1c0.2,0.4,0.3,0.8,0.3,1.2s-0.1,0.8-0.3,1.2c-0.2,0.4-0.4,0.7-0.7,1
		c-0.3,0.3-0.6,0.5-1,0.7c-0.4,0.2-0.8,0.3-1.2,0.3s-0.8-0.1-1.2-0.3c-0.4-0.2-0.7-0.4-1-0.7c-0.3-0.3-0.5-0.6-0.7-1
		C43.3,6.1,43.2,5.7,43.2,5.3z M44.9,5.3c0,0.4,0.1,0.8,0.4,1.1c0.3,0.3,0.6,0.4,1.1,0.4s0.8-0.1,1.1-0.4s0.4-0.6,0.4-1.1
		s-0.1-0.8-0.4-1.1s-0.6-0.4-1.1-0.4s-0.8,0.1-1.1,0.4C45,4.5,44.9,4.8,44.9,5.3z"/>
</g>
<g class="st0">
	<path d="M56.8,4.9c0.5-0.9,1.2-1.7,2.1-2.2c0.9-0.5,1.9-0.8,3-0.7c0.7,0,1.4,0.2,2,0.5s1.1,0.7,1.6,1.2c0.4,0.5,0.8,1.1,1,1.7
		c0.2,0.6,0.3,1.3,0.3,2c0,0.4-0.1,0.8-0.2,1.2c-0.1,0.5-0.4,1-0.7,1.5c-0.3,0.5-0.7,0.9-1.2,1.2c0.5,0.2,0.9,0.5,1.2,0.8
		c0.4,0.4,0.7,0.8,0.9,1.3s0.4,1,0.5,1.5s0.2,1.1,0.1,1.6c-0.1,0.8-0.3,1.6-0.7,2.3c-0.4,0.7-0.8,1.3-1.4,1.8
		c-0.6,0.5-1.3,0.9-2,1.1s-1.5,0.3-2.3,0.3c-1.2-0.1-2.2-0.5-3.1-1.3c-0.9-0.7-1.6-1.7-2.1-2.8l2.1-1.3c0.3,0.7,0.7,1.3,1.3,1.8
		c0.6,0.5,1.3,0.8,2,0.9h0c0.5,0,1,0,1.4-0.2c0.4-0.2,0.9-0.4,1.2-0.7c0.4-0.3,0.6-0.6,0.9-1c0.2-0.4,0.3-0.9,0.4-1.3
		s-0.1-0.9-0.2-1.4c-0.2-0.4-0.4-0.8-0.7-1.1c-0.3-0.3-0.7-0.6-1.1-0.8c-0.4-0.2-0.9-0.3-1.3-0.3h-2v-2.6h2c0.6,0,1.2-0.2,1.6-0.6
		c0.4-0.4,0.7-1,0.8-1.6c0.1-0.3,0.1-0.7,0-1c0-0.3-0.1-0.7-0.3-1c-0.2-0.3-0.5-0.6-0.9-0.8c-0.4-0.2-0.8-0.3-1.2-0.4
		c-0.7-0.1-1.3,0.1-1.8,0.4c-0.5,0.3-0.9,0.8-1.3,1.4L56.8,4.9z"/>
	<path d="M70.9,12.1c0-1.4,0.1-2.7,0.3-3.9c0.2-1.2,0.5-2.3,1-3.2c0.5-0.9,1.1-1.6,2-2.2C74.9,2.3,76,2,77.3,2s2.3,0.3,3.1,0.8
		c0.8,0.5,1.5,1.3,1.9,2.2c0.5,0.9,0.8,2,1,3.2c0.2,1.2,0.3,2.5,0.3,3.9c0,1.4-0.1,2.7-0.3,3.9c-0.2,1.2-0.5,2.3-1,3.2
		s-1.1,1.6-1.9,2.1c-0.8,0.5-1.9,0.8-3.1,0.8s-2.3-0.3-3.1-0.8c-0.8-0.5-1.5-1.2-2-2.1c-0.5-0.9-0.8-2-1-3.2
		C71,14.8,70.9,13.5,70.9,12.1z M73.3,12.1c0,1,0.1,2,0.2,2.9s0.3,1.7,0.6,2.3s0.7,1.2,1.2,1.6c0.5,0.4,1.2,0.6,2,0.6s1.4-0.2,2-0.6
		c0.5-0.4,0.9-0.9,1.2-1.6s0.5-1.4,0.6-2.3c0.1-0.9,0.2-1.8,0.2-2.9s-0.1-2-0.2-2.9c-0.1-0.9-0.3-1.7-0.6-2.3
		c-0.3-0.7-0.7-1.2-1.2-1.6c-0.5-0.4-1.2-0.6-2-0.6s-1.4,0.2-2,0.6c-0.5,0.4-0.9,0.9-1.2,1.6c-0.3,0.7-0.5,1.4-0.6,2.3
		S73.3,11.1,73.3,12.1z"/>
</g>
</svg>
