<?xml version="1.0" encoding="utf-8"?>
<!-- Generator: Adobe Illustrator 19.2.1, SVG Export Plug-In . SVG Version: 6.00 Build 0)  -->
<svg version="1.1" id="Ebene_1" xmlns="http://www.w3.org/2000/svg" xmlns:xlink="http://www.w3.org/1999/xlink" x="0px" y="0px"
	 viewBox="0 0 106 38" style="enable-background:new 0 0 106 38;" xml:space="preserve">
<style type="text/css">
	.st0{enable-background:new    ;}
</style>
<g class="st0">
	<path d="M44.1,21.8L35.6,6.3v15.6h-2.5V1.2h2.5L44,16.6V1.2h2.5v20.7H44.1z"/>
</g>
<g class="st0">
	<path d="M50.2,5.3c0-0.4,0.1-0.8,0.3-1.2c0.2-0.4,0.4-0.7,0.7-1c0.3-0.3,0.6-0.5,1-0.7c0.4-0.2,0.8-0.3,1.2-0.3s0.8,0.1,1.2,0.3
		s0.7,0.4,1,0.7s0.5,0.6,0.7,1c0.2,0.4,0.3,0.8,0.3,1.2s-0.1,0.8-0.3,1.2c-0.2,0.4-0.4,0.7-0.7,1c-0.3,0.3-0.6,0.5-1,0.7
		s-0.8,0.3-1.2,0.3s-0.8-0.1-1.2-0.3c-0.4-0.2-0.7-0.4-1-0.7c-0.3-0.3-0.5-0.6-0.7-1C50.3,6.1,50.2,5.7,50.2,5.3z M51.9,5.3
		c0,0.4,0.1,0.8,0.4,1.1c0.3,0.3,0.6,0.4,1.1,0.4s0.8-0.1,1.1-0.4s0.4-0.6,0.4-1.1s-0.1-0.8-0.4-1.1s-0.6-0.4-1.1-0.4
		s-0.8,0.1-1.1,0.4C52,4.5,51.9,4.8,51.9,5.3z"/>
</g>
<g class="st0">
	<path d="M65,16.4c0.3,1,0.8,1.7,1.5,2.3c0.7,0.6,1.4,0.8,2.3,0.8c0.7,0,1.4-0.1,1.9-0.3c0.5-0.2,1-0.5,1.3-0.9s0.6-0.8,0.8-1.3
		c0.2-0.5,0.2-1,0.2-1.5c0-0.6-0.1-1.2-0.3-1.6c-0.2-0.5-0.5-0.9-0.8-1.2c-0.3-0.3-0.7-0.6-1.2-0.7c-0.4-0.1-0.9-0.2-1.4-0.2
		c-0.4,0-0.7,0-1.1,0.1c-0.3,0.1-0.7,0.1-1,0.3c-0.3,0.1-0.7,0.3-1.1,0.5s-0.8,0.5-1.2,0.8L63.5,12L65,2.3h9.4v2.6H67l-1,5.5
		c0.2-0.2,0.4-0.3,0.7-0.4c0.3-0.1,0.6-0.3,0.9-0.4c0.3-0.1,0.6-0.2,0.9-0.2s0.6-0.1,0.9-0.1c0.8,0,1.6,0.1,2.3,0.4s1.4,0.7,1.9,1.2
		s1,1.2,1.3,2c0.3,0.8,0.5,1.7,0.5,2.7c0,1-0.2,1.9-0.5,2.7c-0.3,0.8-0.8,1.5-1.4,2.1c-0.6,0.6-1.3,1-2.1,1.3
		c-0.8,0.3-1.7,0.5-2.7,0.5c-0.6,0-1.2-0.1-1.8-0.3s-1.1-0.5-1.6-0.9c-0.5-0.4-1-0.9-1.4-1.4c-0.4-0.5-0.8-1.2-1-1.8L65,16.4z"/>
</g>
</svg>
