<?xml version="1.0" encoding="utf-8"?>
<!-- Generator: Adobe Illustrator 19.2.1, SVG Export Plug-In . SVG Version: 6.00 Build 0)  -->
<svg version="1.1" id="Ebene_1" xmlns="http://www.w3.org/2000/svg" xmlns:xlink="http://www.w3.org/1999/xlink" x="0px" y="0px"
	 viewBox="0 0 106 38" style="enable-background:new 0 0 106 38;" xml:space="preserve">
<style type="text/css">
	.st0{enable-background:new    ;}
</style>
<g class="st0">
	<path d="M44.1,21.8L35.6,6.3v15.6h-2.5V1.2h2.5L44,16.6V1.2h2.5v20.7H44.1z"/>
</g>
<g class="st0">
	<path d="M50.2,5.3c0-0.4,0.1-0.8,0.3-1.2c0.2-0.4,0.4-0.7,0.7-1c0.3-0.3,0.6-0.5,1-0.7c0.4-0.2,0.8-0.3,1.2-0.3s0.8,0.1,1.2,0.3
		s0.7,0.4,1,0.7s0.5,0.6,0.7,1c0.2,0.4,0.3,0.8,0.3,1.2s-0.1,0.8-0.3,1.2c-0.2,0.4-0.4,0.7-0.7,1c-0.3,0.3-0.6,0.5-1,0.7
		s-0.8,0.3-1.2,0.3s-0.8-0.1-1.2-0.3c-0.4-0.2-0.7-0.4-1-0.7c-0.3-0.3-0.5-0.6-0.7-1C50.3,6.1,50.2,5.7,50.2,5.3z M51.9,5.3
		c0,0.4,0.1,0.8,0.4,1.1c0.3,0.3,0.6,0.4,1.1,0.4s0.8-0.1,1.1-0.4s0.4-0.6,0.4-1.1s-0.1-0.8-0.4-1.1s-0.6-0.4-1.1-0.4
		s-0.8,0.1-1.1,0.4C52,4.5,51.9,4.8,51.9,5.3z"/>
</g>
<g class="st0">
	<path d="M72.8,6.8c-0.4-0.8-0.8-1.4-1.4-1.7c-0.5-0.3-1.1-0.5-1.6-0.5c-0.6,0-1.2,0.2-1.7,0.5c-0.5,0.3-0.9,0.8-1.3,1.4
		s-0.6,1.3-0.8,2.2c-0.2,0.8-0.2,1.8-0.1,2.8c0.3-0.8,0.8-1.4,1.4-1.7c0.7-0.3,1.4-0.5,2.2-0.5s1.6,0.2,2.2,0.6
		c0.7,0.4,1.3,0.9,1.7,1.5c0.5,0.6,0.9,1.4,1.1,2.2c0.3,0.8,0.4,1.6,0.4,2.5c0,0.9-0.2,1.7-0.5,2.5s-0.8,1.4-1.3,2
		c-0.5,0.6-1.1,1-1.8,1.3s-1.4,0.4-2.2,0.4c-0.8,0-1.5-0.2-2.1-0.5c-0.7-0.3-1.2-0.8-1.7-1.4c-0.5-0.6-0.9-1.3-1.2-2.1
		c-0.3-0.8-0.5-1.7-0.6-2.7c-0.2-2.5-0.1-4.9,0.3-7.4c0.1-0.9,0.4-1.7,0.7-2.4s0.8-1.4,1.3-1.9c0.5-0.5,1.1-0.9,1.8-1.2
		C68.3,2.1,69.1,2,69.9,2c0.5,0,1,0.1,1.4,0.2c0.5,0.1,0.9,0.3,1.4,0.6c0.4,0.3,0.8,0.7,1.2,1.1c0.4,0.5,0.7,1.1,1,1.8L72.8,6.8z
		 M66,15.5c0,0.5,0.1,1,0.3,1.5c0.2,0.5,0.4,0.9,0.7,1.2c0.3,0.4,0.6,0.6,1,0.8c0.4,0.2,0.8,0.3,1.3,0.3c0.5,0,0.9-0.1,1.3-0.2
		c0.4-0.2,0.8-0.4,1.1-0.8c0.3-0.3,0.5-0.7,0.7-1.2s0.3-0.9,0.3-1.5c0-0.5,0-1-0.2-1.5c-0.1-0.5-0.4-0.9-0.6-1.2
		c-0.3-0.3-0.6-0.6-1-0.8c-0.4-0.2-0.8-0.3-1.3-0.3c-0.5,0-0.9,0.1-1.3,0.2c-0.4,0.2-0.8,0.4-1.1,0.8c-0.3,0.3-0.6,0.7-0.8,1.1
		C66.1,14.5,66,14.9,66,15.5z"/>
</g>
</svg>
