<?xml version="1.0" encoding="utf-8"?>
<!-- Generator: Adobe Illustrator 19.2.1, SVG Export Plug-In . SVG Version: 6.00 Build 0)  -->
<svg version="1.1" id="Ebene_1" xmlns="http://www.w3.org/2000/svg" xmlns:xlink="http://www.w3.org/1999/xlink" x="0px" y="0px"
	 viewBox="0 0 106 38" style="enable-background:new 0 0 106 38;" xml:space="preserve">
<style type="text/css">
	.st0{enable-background:new    ;}
</style>
<g class="st0">
	<path d="M44.1,21.8L35.6,6.3v15.6h-2.5V1.2h2.5L44,16.6V1.2h2.5v20.7H44.1z"/>
</g>
<g class="st0">
	<path d="M50.2,5.3c0-0.4,0.1-0.8,0.3-1.2c0.2-0.4,0.4-0.7,0.7-1c0.3-0.3,0.6-0.5,1-0.7c0.4-0.2,0.8-0.3,1.2-0.3s0.8,0.1,1.2,0.3
		s0.7,0.4,1,0.7s0.5,0.6,0.7,1c0.2,0.4,0.3,0.8,0.3,1.2s-0.1,0.8-0.3,1.2c-0.2,0.4-0.4,0.7-0.7,1c-0.3,0.3-0.6,0.5-1,0.7
		s-0.8,0.3-1.2,0.3s-0.8-0.1-1.2-0.3c-0.4-0.2-0.7-0.4-1-0.7c-0.3-0.3-0.5-0.6-0.7-1C50.3,6.1,50.2,5.7,50.2,5.3z M51.9,5.3
		c0,0.4,0.1,0.8,0.4,1.1c0.3,0.3,0.6,0.4,1.1,0.4s0.8-0.1,1.1-0.4s0.4-0.6,0.4-1.1s-0.1-0.8-0.4-1.1s-0.6-0.4-1.1-0.4
		s-0.8,0.1-1.1,0.4C52,4.5,51.9,4.8,51.9,5.3z"/>
</g>
<g class="st0">
	<path d="M64.5,7c0-0.7,0.1-1.3,0.4-1.9c0.2-0.6,0.6-1.1,1-1.6s0.9-0.8,1.5-1.1C67.9,2.1,68.5,2,69.2,2c0.7,0,1.3,0.1,1.9,0.4
		c0.6,0.3,1.1,0.6,1.5,1.1s0.8,1,1,1.6C73.9,5.7,74,6.3,74,7c0,0.7-0.1,1.3-0.4,1.9s-0.6,1.1-1,1.5c0.8,0.6,1.5,1.3,2,2.2
		s0.7,1.9,0.7,3c0,0.9-0.2,1.7-0.5,2.5c-0.3,0.8-0.7,1.4-1.3,2c-0.5,0.6-1.2,1-1.9,1.4s-1.5,0.5-2.4,0.5s-1.7-0.2-2.4-0.5
		s-1.4-0.8-1.9-1.4c-0.5-0.6-1-1.3-1.3-2c-0.3-0.8-0.5-1.6-0.5-2.5c0-1.1,0.2-2.1,0.7-3c0.5-0.9,1.1-1.7,1.9-2.2
		c-0.4-0.4-0.7-0.9-0.9-1.5C64.6,8.4,64.5,7.7,64.5,7z M65.6,15.7c0,0.5,0.1,1,0.3,1.5s0.4,0.8,0.8,1.2c0.3,0.3,0.7,0.6,1.1,0.8
		c0.4,0.2,0.9,0.3,1.4,0.3s1-0.1,1.4-0.3c0.4-0.2,0.8-0.5,1.1-0.8c0.3-0.3,0.6-0.7,0.8-1.2c0.2-0.5,0.3-0.9,0.3-1.5
		c0-0.5-0.1-1-0.3-1.4c-0.2-0.5-0.4-0.9-0.8-1.2c-0.3-0.3-0.7-0.6-1.1-0.8c-0.4-0.2-0.9-0.3-1.4-0.3H69c-0.5,0-0.9,0.1-1.4,0.3
		c-0.4,0.2-0.8,0.5-1.1,0.8c-0.3,0.3-0.6,0.7-0.7,1.2C65.7,14.8,65.6,15.2,65.6,15.7z M66.9,7c0,0.6,0.2,1.2,0.6,1.6
		c0.4,0.5,0.9,0.7,1.6,0.8h0.2c0.6,0,1.2-0.3,1.6-0.8c0.4-0.5,0.6-1,0.6-1.6s-0.2-1.2-0.7-1.6c-0.4-0.4-1-0.7-1.7-0.7
		c-0.6,0-1.2,0.2-1.6,0.7C67.1,5.8,66.9,6.4,66.9,7z"/>
</g>
</svg>
