<?xml version="1.0" encoding="utf-8"?>
<!-- Generator: Adobe Illustrator 15.0.2, SVG Export Plug-In  -->
<!DOCTYPE svg PUBLIC "-//W3C//DTD SVG 1.1//EN" "http://www.w3.org/Graphics/SVG/1.1/DTD/svg11.dtd" [
	<!ENTITY ns_flows "http://ns.adobe.com/Flows/1.0/">
]>
<svg version="1.1"
	 xmlns="http://www.w3.org/2000/svg" xmlns:xlink="http://www.w3.org/1999/xlink" xmlns:a="http://ns.adobe.com/AdobeSVGViewerExtensions/3.0/"
	 x="0px" y="0px" width="106px" height="38px" viewBox="0 -5.294 106 38"
	 overflow="visible" enable-background="new 0 -5.294 106 38" xml:space="preserve">
<defs>
</defs>
<path d="M23.305,21.848V1.363h1.202l11.956,15.308V1.363h2.305v20.484h-1.169L25.592,6.54v15.308H23.305z"/>
<path stroke="#000000" stroke-width="0.5" stroke-miterlimit="10" d="M48.54,0.25c0.823,0,1.523,0.292,2.1,0.875
	c0.577,0.584,0.865,1.288,0.865,2.111c0,0.824-0.292,1.529-0.875,2.116c-0.584,0.587-1.288,0.881-2.111,0.881
	c-0.838,0-1.543-0.29-2.116-0.87s-0.859-1.289-0.859-2.127c0-0.831,0.292-1.536,0.876-2.116C47.002,0.54,47.709,0.25,48.54,0.25z
	 M50.753,3.247c0-0.619-0.216-1.147-0.648-1.586s-0.955-0.659-1.57-0.659c-0.614,0-1.141,0.22-1.58,0.659s-0.659,0.968-0.659,1.586
	c0,0.626,0.218,1.155,0.653,1.587s0.965,0.647,1.586,0.647c0.622,0,1.147-0.216,1.576-0.647S50.753,3.873,50.753,3.247z"/>
<path d="M79.635,10.752c1.058,0.557,1.845,1.247,2.362,2.069c0.519,0.823,0.777,1.803,0.777,2.941c0,2.017-0.785,3.625-2.354,4.824
	c-1.57,1.2-3.702,1.8-6.396,1.8c-2.705,0-4.846-0.597-6.421-1.791c-1.575-1.193-2.362-2.792-2.362-4.796
	c0-1.138,0.267-2.13,0.801-2.978c0.535-0.847,1.325-1.537,2.372-2.069c-0.635-0.458-1.119-0.989-1.453-1.596
	c-0.334-0.606-0.501-1.268-0.501-1.985c0-1.596,0.679-2.867,2.037-3.813s3.2-1.419,5.527-1.419s4.169,0.473,5.527,1.419
	s2.037,2.217,2.037,3.813c0,0.718-0.166,1.379-0.5,1.985C80.754,9.763,80.27,10.294,79.635,10.752z M67.628,15.799
	c0,1.262,0.576,2.276,1.729,3.043c1.152,0.767,2.708,1.15,4.667,1.15c1.948,0,3.496-0.38,4.643-1.141s1.72-1.778,1.72-3.052
	c0-1.299-0.489-2.236-1.47-2.811c-0.979-0.575-2.61-0.863-4.893-0.863s-3.919,0.291-4.909,0.872
	C68.123,13.579,67.628,14.513,67.628,15.799z M79.184,7.06c0-0.816-0.468-1.481-1.402-1.995c-0.936-0.513-2.188-0.77-3.758-0.77
	c-1.581,0-2.83,0.26-3.749,0.779c-0.918,0.52-1.378,1.206-1.378,2.06c0,0.816,0.448,1.454,1.345,1.911
	c0.896,0.458,2.157,0.687,3.782,0.687c1.659,0,2.934-0.232,3.824-0.696S79.184,7.913,79.184,7.06z"/>
<rect y="44.809" fill="none" width="105.979" height="31.708"/>
<text transform="matrix(0.9 0 0 1 20.5322 65.6582)" stroke="#f5f5f5" stroke-width="0.25" stroke-miterlimit="10" font-family="'EngraversGothicBT-Regular'" font-size="38" letter-spacing="3.333">N</text>
<text transform="matrix(1 0 0 1 44.9092 59.6582)" stroke="#000000" stroke-width="0.5" stroke-miterlimit="10" font-family="'EngraversGothicBT-Regular'" font-size="22">°</text>
<text transform="matrix(0.9 0 0 1 52.1494 65.6582)" font-family="'EngraversGothicBT-Regular'" font-size="50" letter-spacing="-4.444"> </text>
<text transform="matrix(0.9 0 0 1 62.6348 65.6582)" stroke="#f5f5f5" stroke-width="0.25" stroke-miterlimit="10" font-family="'EngraversGothicBT-Regular'" font-size="38">9</text>
</svg>
