<?xml version="1.0" encoding="utf-8"?>
<!-- Generator: Adobe Illustrator 19.2.1, SVG Export Plug-In . SVG Version: 6.00 Build 0)  -->
<svg version="1.1" id="Ebene_1" xmlns="http://www.w3.org/2000/svg" xmlns:xlink="http://www.w3.org/1999/xlink" x="0px" y="0px"
	 viewBox="0 0 35 475" style="enable-background:new 0 0 35 475;" xml:space="preserve">
<style type="text/css">
	.st0{fill:#FFFFFF;}
</style>
<g>
	<path class="st0" d="M5,12.1c0,0.3,0.1,0.6,0.2,0.9s0.3,0.6,0.6,0.8c0.3,0.2,0.6,0.4,0.9,0.6s0.8,0.2,1.2,0.2c0.9,0,1.6-0.2,2-0.6
		c0.5-0.4,0.7-0.9,0.8-1.5c0-0.7-0.2-1.3-0.6-1.6c-0.5-0.4-1.1-0.7-1.8-0.8L6.5,9.5C5.7,9.3,5,9,4.5,8.7S3.6,8,3.4,7.7
		C3.2,7.3,3,6.9,2.9,6.6S2.8,5.8,2.8,5.5c0-0.6,0.1-1.2,0.4-1.8c0.3-0.5,0.6-1,1.1-1.4s1-0.7,1.6-0.9s1.2-0.3,1.9-0.3s1.4,0.1,2,0.3
		s1.1,0.5,1.6,0.9c0.4,0.4,0.8,0.9,1,1.4c0.2,0.6,0.4,1.2,0.4,1.9h-2.3c0-0.7-0.2-1.3-0.7-1.7C9.2,3.5,8.5,3.3,7.7,3.3
		c-0.4,0-0.7,0.1-1,0.2S6.1,3.7,5.9,3.9C5.6,4.1,5.5,4.3,5.3,4.6C5.2,4.8,5.1,5.1,5.1,5.4c0,0.1,0,0.3,0.1,0.5s0.1,0.4,0.3,0.5
		C5.6,6.7,5.8,6.8,6,7c0.3,0.2,0.6,0.3,1.1,0.4L9,7.9c1.5,0.4,2.6,1,3.3,1.8s0.9,1.8,0.8,2.9c-0.1,0.6-0.2,1.1-0.5,1.6
		s-0.6,0.9-1.1,1.3c-0.5,0.4-1,0.6-1.6,0.8s-1.3,0.3-2,0.3c-0.8,0-1.5-0.1-2.2-0.4C5,16,4.5,15.6,4,15.2s-0.8-0.9-1.1-1.5
		s-0.4-1.1-0.4-1.8H5V12.1z"/>
	<path class="st0" d="M11.3,41.7H5.1l-1.5,3.8H1.2l5.7-15.2h2.5l5.7,15.2h-2.5L11.3,41.7z M5.9,39.6h4.5l-2.3-6.4L5.9,39.6z"/>
	<path class="st0" d="M12.9,63.3c0,0.3,0,0.6-0.1,0.9c-0.1,0.3-0.2,0.6-0.3,0.9c-0.2,0.3-0.4,0.5-0.6,0.7c-0.2,0.2-0.6,0.4-0.9,0.6
		c0.4,0.1,0.8,0.3,1.2,0.5s0.6,0.5,0.9,0.9c0.2,0.3,0.4,0.7,0.5,1.1s0.2,0.8,0.2,1.1c0,0.6-0.1,1.2-0.3,1.7s-0.5,1-0.9,1.4
		s-0.9,0.7-1.4,1c-0.6,0.2-1.2,0.4-1.9,0.4H2.9V59.3h5.8c1.3,0,2.3,0.4,3.1,1.1C12.5,61.1,12.9,62.1,12.9,63.3z M8.6,65.5
		c0.6,0,1.1-0.2,1.4-0.6s0.5-0.9,0.5-1.5S10.3,62.3,10,62s-0.9-0.5-1.5-0.5H5.3v4.1L8.6,65.5L8.6,65.5z M5.3,67.5v4.8h3.8
		c0.4,0,0.7-0.1,0.9-0.2s0.5-0.3,0.7-0.5s0.3-0.5,0.4-0.7c0.1-0.3,0.2-0.6,0.2-0.9s-0.1-0.6-0.2-0.9c-0.1-0.3-0.3-0.6-0.5-0.8
		c-0.2-0.2-0.4-0.4-0.7-0.6s-0.6-0.2-1-0.2C8.9,67.5,5.3,67.5,5.3,67.5z"/>
	<path class="st0" d="M13.6,103.5h-2.8L7,97.9H5.3v5.6H3V88.3h5.9c0.8,0,1.5,0.1,2.1,0.4s1.1,0.6,1.4,1.1s0.6,1,0.8,1.5
		s0.3,1.2,0.3,1.8c0,0.6-0.1,1.1-0.2,1.6c-0.1,0.5-0.4,1-0.7,1.4s-0.7,0.8-1.2,1.1c-0.5,0.3-1.1,0.5-1.8,0.6L13.6,103.5z M5.3,90.5
		v5.3h3.4c0.4,0,0.8-0.1,1.1-0.2c0.3-0.2,0.5-0.4,0.7-0.6s0.3-0.5,0.4-0.8s0.1-0.6,0.1-1s0-0.6-0.1-1s-0.2-0.6-0.4-0.8
		c-0.2-0.2-0.4-0.5-0.7-0.6c-0.3-0.2-0.6-0.2-1-0.2H5.3V90.5z"/>
	<path class="st0" d="M6.7,117.3H9v15.2H6.7V117.3z"/>
	<path class="st0" d="M13.4,161.5h-2.2l-6.5-10.8v10.8H2.3v-15.2h2.2l6.4,10.8v-10.8h2.3v15.2H13.4z"/>
	<path class="st0" d="M11.3,186.7H5.1l-1.5,3.8H1.2l5.7-15.2h2.5l5.7,15.2h-2.5L11.3,186.7z M5.9,184.6h4.5l-2.3-6.4L5.9,184.6z"/>
	<path class="st0" d="M2.5,233.3h11.3v2.2H9.3v13H7v-13H2.5V233.3z"/>
	<path class="st0" d="M13.6,262.3v15.2h-2.4V271H4.4v6.5H2.1v-15.2h2.3v6.6h6.8v-6.6H13.6z"/>
	<path class="st0" d="M3.6,291.3h9.1v2.2H5.9v4.5h5.9v2.1H5.9v4.2h7v2.1H3.6V291.3z"/>
	<path class="st0" d="M6.7,320.3H9v15.2H6.7V320.3z"/>
	<path class="st0" d="M5,360.1c0,0.3,0.1,0.6,0.2,0.9s0.3,0.6,0.6,0.8c0.3,0.2,0.6,0.4,0.9,0.6s0.8,0.2,1.2,0.2c0.9,0,1.6-0.2,2-0.6
		c0.5-0.4,0.7-0.9,0.8-1.5c0-0.7-0.2-1.2-0.6-1.6s-1.1-0.7-1.8-0.8l-1.9-0.5c-0.8-0.2-1.5-0.5-2-0.8s-0.9-0.7-1.1-1
		c-0.3-0.4-0.4-0.8-0.5-1.1c-0.1-0.4-0.1-0.7-0.1-1.1c0-0.6,0.1-1.2,0.4-1.8c0.3-0.5,0.6-1,1.1-1.4s1-0.7,1.6-0.9
		c0.6-0.2,1.2-0.3,1.9-0.3s1.4,0.1,2,0.3c0.6,0.2,1.1,0.5,1.6,0.9c0.4,0.4,0.8,0.9,1,1.4c0.2,0.6,0.4,1.2,0.4,1.9h-2.3
		c0-0.7-0.2-1.3-0.7-1.7c-0.5-0.4-1.1-0.6-1.9-0.6c-0.4,0-0.7,0.1-1,0.2S6.2,351.8,6,352s-0.4,0.4-0.6,0.7c-0.1,0.3-0.2,0.5-0.2,0.8
		c0,0.1,0,0.3,0.1,0.5s0.1,0.4,0.3,0.5c0.1,0.2,0.3,0.4,0.6,0.5c0.3,0.2,0.6,0.3,1.1,0.4l1.9,0.5c1.5,0.4,2.6,1,3.3,1.8
		s0.9,1.8,0.8,2.9c-0.1,0.6-0.2,1.1-0.5,1.6s-0.6,0.9-1.1,1.3s-1,0.6-1.6,0.8c-0.6,0.2-1.3,0.3-2,0.3c-0.8,0-1.5-0.1-2.2-0.4
		c-0.7-0.2-1.2-0.6-1.7-1s-0.8-0.9-1.1-1.5s-0.4-1.1-0.4-1.8H5V360.1z"/>
	<path class="st0" d="M5,389.1c0,0.3,0.1,0.6,0.2,0.9s0.3,0.6,0.6,0.8c0.3,0.2,0.6,0.4,0.9,0.6s0.8,0.2,1.2,0.2c0.9,0,1.6-0.2,2-0.6
		c0.5-0.4,0.7-0.9,0.8-1.5c0-0.7-0.2-1.2-0.6-1.6s-1.1-0.7-1.8-0.8l-1.9-0.5c-0.8-0.2-1.5-0.5-2-0.8s-0.9-0.7-1.1-1
		c-0.3-0.4-0.4-0.8-0.5-1.1c-0.1-0.4-0.1-0.7-0.1-1.1c0-0.6,0.1-1.2,0.4-1.8c0.3-0.5,0.6-1,1.1-1.4s1-0.7,1.6-0.9
		c0.6-0.2,1.2-0.3,1.9-0.3s1.4,0.1,2,0.3c0.6,0.2,1.1,0.5,1.6,0.9c0.4,0.4,0.8,0.9,1,1.4c0.2,0.6,0.4,1.2,0.4,1.9h-2.3
		c0-0.7-0.2-1.3-0.7-1.7c-0.5-0.4-1.1-0.6-1.9-0.6c-0.4,0-0.7,0.1-1,0.2S6.2,380.8,6,381s-0.4,0.4-0.6,0.7c-0.1,0.3-0.2,0.5-0.2,0.8
		c0,0.1,0,0.3,0.1,0.5s0.1,0.4,0.3,0.5c0.1,0.2,0.3,0.4,0.6,0.5c0.3,0.2,0.6,0.3,1.1,0.4l1.9,0.5c1.5,0.4,2.6,1,3.3,1.8
		s0.9,1.8,0.8,2.9c-0.1,0.6-0.2,1.1-0.5,1.6s-0.6,0.9-1.1,1.3s-1,0.6-1.6,0.8c-0.6,0.2-1.3,0.3-2,0.3c-0.8,0-1.5-0.1-2.2-0.4
		c-0.7-0.2-1.2-0.6-1.7-1s-0.8-0.9-1.1-1.5s-0.4-1.1-0.4-1.8H5V389.1z"/>
	<path class="st0" d="M3.6,407.3h9.1v2.2H5.9v4.5h5.9v2.1H5.9v4.2h7v2.1H3.6V407.3z"/>
	<path class="st0" d="M13.4,451.5h-2.2l-6.5-10.8v10.8H2.3v-15.2h2.2l6.4,10.8v-10.8h2.3v15.2H13.4z"/>
</g>
</svg>
