<?xml version="1.0" encoding="utf-8"?>
<!-- Generator: Adobe Illustrator 15.0.2, SVG Export Plug-In  -->
<!DOCTYPE svg PUBLIC "-//W3C//DTD SVG 1.1//EN" "http://www.w3.org/Graphics/SVG/1.1/DTD/svg11.dtd" [
	<!ENTITY ns_flows "http://ns.adobe.com/Flows/1.0/">
]>
<svg version="1.1"
	 xmlns="http://www.w3.org/2000/svg" xmlns:xlink="http://www.w3.org/1999/xlink" xmlns:a="http://ns.adobe.com/AdobeSVGViewerExtensions/3.0/"
	 x="0px" y="0px" width="255px" height="18px" viewBox="-5.768 -2.072 255 18"
	 overflow="visible" enable-background="new -5.768 -2.072 255 18" xml:space="preserve">
<defs>
</defs>
<path d="M0,11.273l0.821-1.395c0.8,0.711,1.634,1.254,2.5,1.629c0.865,0.375,1.723,0.562,2.571,0.562
	c1.047,0,1.897-0.254,2.551-0.762c0.653-0.508,0.98-1.16,0.98-1.957c0-0.633-0.235-1.154-0.703-1.564
	c-0.469-0.41-1.117-0.654-1.945-0.732c-0.199-0.023-0.487-0.047-0.862-0.07c-1.862-0.148-3.131-0.398-3.809-0.75
	C1.577,5.945,1.177,5.572,0.903,5.115S0.492,4.145,0.492,3.574c0-1.039,0.407-1.895,1.222-2.566C2.528,0.336,3.586,0,4.887,0
	C5.83,0,6.763,0.178,7.684,0.533c0.92,0.355,1.794,0.881,2.622,1.576L9.485,3.445C8.788,2.805,8.053,2.322,7.283,1.998
	S5.721,1.512,4.907,1.512c-0.855,0-1.56,0.189-2.115,0.568C2.237,2.459,1.961,2.934,1.961,3.504c0,0.227,0.044,0.434,0.133,0.621
	S2.32,4.488,2.504,4.652C2.97,5.051,3.976,5.305,5.522,5.414c0.712,0.047,1.263,0.098,1.653,0.152c1.15,0.148,2.06,0.57,2.731,1.266
	c0.67,0.695,1.005,1.551,1.005,2.566c0,1.211-0.46,2.207-1.38,2.988s-2.127,1.172-3.618,1.172c-1.129,0-2.179-0.188-3.147-0.562
	C1.797,12.621,0.875,12.047,0,11.273z"/>
<path d="M16.597,13.219L22.15,0.281h1.17l5.616,12.938h-1.53l-1.54-3.48h-6.262l-1.498,3.48H16.597z M20.251,8.227h4.99l-2.506-5.73
	L20.251,8.227z"/>
<path d="M34.994,13.219V0.281h6.703c1.115,0,1.958,0.271,2.53,0.814s0.857,1.346,0.857,2.408c0,0.516-0.088,0.977-0.267,1.383
	c-0.177,0.406-0.431,0.734-0.759,0.984c0.603,0.398,1.058,0.887,1.366,1.465s0.462,1.242,0.462,1.992
	c0,1.195-0.344,2.143-1.032,2.842c-0.687,0.699-1.621,1.049-2.797,1.049H34.994z M36.399,5.391h5.421
	c0.595,0,1.05-0.154,1.365-0.463c0.314-0.309,0.472-0.752,0.472-1.33c0-0.609-0.152-1.066-0.457-1.371
	c-0.304-0.305-0.764-0.457-1.38-0.457h-5.421V5.391z M36.399,11.73h5.935c0.642,0,1.149-0.217,1.519-0.65s0.554-1.025,0.554-1.775
	c0-0.742-0.185-1.332-0.554-1.77s-0.876-0.656-1.519-0.656h-5.935V11.73z"/>
<path d="M52.991,13.219V0.281h6.498c1.109,0,1.978,0.318,2.608,0.955s0.944,1.518,0.944,2.643c0,0.938-0.247,1.74-0.739,2.408
	c-0.493,0.668-1.144,1.084-1.95,1.248l2.833,5.684h-1.56l-2.833-5.66h-4.393v5.66H52.991z M54.398,6.047h4.999
	c0.712,0,1.251-0.18,1.617-0.539c0.366-0.359,0.549-0.887,0.549-1.582c0-0.68-0.183-1.209-0.549-1.588
	c-0.366-0.379-0.881-0.568-1.545-0.568h-5.071V6.047z"/>
<path d="M69.96,13.219V0.211h1.428v13.008H69.96z"/>
<path d="M79.13,13.219V0.281h0.739l7.35,9.668V0.281h1.417v12.938h-0.718l-7.382-9.668v9.668H79.13z"/>
<path d="M94.642,13.219l5.554-12.938h1.17l5.615,12.938h-1.53l-1.54-3.48h-6.262l-1.498,3.48H94.642z M98.297,8.227h4.989
	l-2.506-5.73L98.297,8.227z"/>
<path d="M128.318,13.219V1.77h-4.764V0.281h10.954V1.77h-4.772v11.449H128.318z"/>
<path d="M139.448,13.219V0.281h1.428v5.109h6.683V0.281h1.417v12.938h-1.417v-6.34h-6.683v6.34H139.448z"/>
<path d="M156.737,13.219V0.281h8.91V1.77h-7.504v3.797h4.537v1.488h-4.537v4.676h7.966v1.488H156.737z"/>
<path d="M172.568,13.219V0.211h1.428v13.008H172.568z"/>
<path d="M180.659,11.273l0.821-1.395c0.801,0.711,1.634,1.254,2.499,1.629s1.723,0.562,2.571,0.562c1.048,0,1.897-0.254,2.551-0.762
	c0.654-0.508,0.98-1.16,0.98-1.957c0-0.633-0.234-1.154-0.703-1.564s-1.117-0.654-1.945-0.732c-0.198-0.023-0.486-0.047-0.862-0.07
	c-1.861-0.148-3.131-0.398-3.809-0.75c-0.527-0.289-0.928-0.662-1.201-1.119s-0.411-0.971-0.411-1.541
	c0-1.039,0.407-1.895,1.222-2.566C183.188,0.336,184.245,0,185.546,0c0.942,0,1.876,0.178,2.797,0.533
	c0.92,0.355,1.795,0.881,2.622,1.576l-0.82,1.336c-0.698-0.641-1.434-1.123-2.203-1.447s-1.562-0.486-2.376-0.486
	c-0.855,0-1.56,0.189-2.115,0.568c-0.554,0.379-0.831,0.854-0.831,1.424c0,0.227,0.045,0.434,0.133,0.621
	c0.089,0.188,0.227,0.363,0.411,0.527c0.466,0.398,1.472,0.652,3.019,0.762c0.711,0.047,1.263,0.098,1.652,0.152
	c1.15,0.148,2.06,0.57,2.73,1.266c0.67,0.695,1.006,1.551,1.006,2.566c0,1.211-0.46,2.207-1.38,2.988
	c-0.921,0.781-2.127,1.172-3.619,1.172c-1.129,0-2.178-0.188-3.146-0.562S181.534,12.047,180.659,11.273z"/>
<path d="M197.548,11.273l0.82-1.395c0.801,0.711,1.634,1.254,2.5,1.629c0.865,0.375,1.723,0.562,2.571,0.562
	c1.048,0,1.897-0.254,2.551-0.762c0.654-0.508,0.98-1.16,0.98-1.957c0-0.633-0.235-1.154-0.703-1.564
	c-0.469-0.41-1.117-0.654-1.945-0.732c-0.198-0.023-0.486-0.047-0.862-0.07c-1.861-0.148-3.131-0.398-3.809-0.75
	c-0.527-0.289-0.928-0.662-1.201-1.119c-0.274-0.457-0.411-0.971-0.411-1.541c0-1.039,0.407-1.895,1.222-2.566
	C200.076,0.336,201.134,0,202.435,0c0.942,0,1.875,0.178,2.797,0.533c0.92,0.355,1.795,0.881,2.622,1.576l-0.82,1.336
	c-0.698-0.641-1.434-1.123-2.203-1.447c-0.771-0.324-1.562-0.486-2.377-0.486c-0.854,0-1.559,0.189-2.114,0.568
	c-0.555,0.379-0.831,0.854-0.831,1.424c0,0.227,0.044,0.434,0.133,0.621s0.227,0.363,0.411,0.527
	c0.466,0.398,1.472,0.652,3.018,0.762c0.712,0.047,1.264,0.098,1.653,0.152c1.15,0.148,2.06,0.57,2.73,1.266
	c0.67,0.695,1.006,1.551,1.006,2.566c0,1.211-0.46,2.207-1.38,2.988c-0.921,0.781-2.127,1.172-3.619,1.172
	c-1.129,0-2.178-0.188-3.147-0.562C199.345,12.621,198.423,12.047,197.548,11.273z"/>
<path d="M215.513,13.219V0.281h8.91V1.77h-7.505v3.797h4.539v1.488h-4.539v4.676h7.967v1.488H215.513z"/>
<path d="M231.323,13.219V0.281h0.739l7.351,9.668V0.281h1.416v12.938h-0.719l-7.381-9.668v9.668H231.323z"/>
</svg>
