<?xml version="1.0" encoding="utf-8"?>
<!-- Generator: Adobe Illustrator 19.2.1, SVG Export Plug-In . SVG Version: 6.00 Build 0)  -->
<svg version="1.1" id="Ebene_1" xmlns="http://www.w3.org/2000/svg" xmlns:xlink="http://www.w3.org/1999/xlink" x="0px" y="0px"
	 viewBox="0 0 255 18" style="enable-background:new 0 0 255 18;" xml:space="preserve">
<g>
	<path d="M3,10.4c0.1,0.3,0.3,0.5,0.6,0.7s0.5,0.4,0.9,0.5c0.3,0.1,0.7,0.2,1.1,0.2s0.8-0.1,1.1-0.2c0.3-0.1,0.6-0.2,0.8-0.4
		s0.4-0.4,0.5-0.6c0.1-0.2,0.2-0.5,0.2-0.7c0-0.4,0-0.7-0.1-0.9C8,8.8,7.8,8.5,7.6,8.3C7.4,8.1,7.1,8,6.8,7.9S6.3,7.7,6,7.6L4.3,7.2
		C3.6,7,3,6.8,2.6,6.5s-0.7-0.6-1-0.9S1.3,5,1.2,4.7C1.1,4.4,1.1,4,1.1,3.8c0-0.5,0.1-1,0.4-1.5C1.7,1.8,2,1.4,2.4,1.1
		c0.4-0.3,0.8-0.6,1.3-0.8c0.5-0.2,1-0.3,1.6-0.3c0.6,0,1.1,0.1,1.7,0.3c0.5,0.2,1,0.4,1.3,0.8C8.7,1.4,9,1.8,9.2,2.3
		c0.2,0.5,0.3,1,0.3,1.6H7.8c0-0.7-0.2-1.2-0.7-1.6C6.6,2,6,1.8,5.3,1.8c-0.3,0-0.6,0-0.9,0.1C4.1,2,3.8,2.1,3.6,2.3
		S3.2,2.7,3.1,2.9C2.9,3.2,2.9,3.4,2.9,3.7c0,0.1,0,0.3,0.1,0.5C3,4.4,3,4.5,3.2,4.7C3.3,4.9,3.5,5,3.7,5.2c0.2,0.1,0.6,0.3,1,0.4
		L6.4,6c1.2,0.3,2.2,0.8,2.8,1.5s0.9,1.6,0.7,2.6c-0.1,0.5-0.2,0.9-0.4,1.3S9,12.2,8.6,12.5c-0.4,0.3-0.8,0.6-1.3,0.7
		c-0.5,0.2-1.1,0.3-1.7,0.3c-0.7,0-1.3-0.1-1.8-0.3c-0.6-0.2-1-0.5-1.4-0.9c-0.4-0.4-0.7-0.8-0.9-1.3C1.1,10.5,1,10.1,1,9.5h1.8
		C2.8,9.8,2.8,10.1,3,10.4z"/>
	<path d="M19.2,10l-1.3,3.3H16l5-13.1h1.9l5,13.1H26L24.7,10H19.2z M24.1,8.4l-2.2-5.8l-2.2,5.8H24.1z"/>
	<path d="M43.4,3.6c0,0.3,0,0.6-0.1,0.8C43.2,4.7,43.1,5,43,5.2c-0.1,0.2-0.3,0.5-0.5,0.7S42,6.2,41.7,6.3c0.4,0.1,0.7,0.2,1,0.4
		s0.5,0.5,0.7,0.8c0.2,0.3,0.4,0.6,0.5,1s0.2,0.7,0.2,1c0,0.5-0.1,1-0.3,1.4s-0.4,0.9-0.8,1.2c-0.3,0.3-0.7,0.6-1.2,0.8
		c-0.5,0.2-1,0.3-1.6,0.3h-5.4V0.2h4.9c1.1,0,2,0.3,2.6,0.9C43.1,1.7,43.4,2.6,43.4,3.6z M39.8,5.7c0.6,0,1-0.2,1.3-0.6
		c0.3-0.4,0.4-0.9,0.4-1.4c0-0.6-0.2-1-0.5-1.3c-0.3-0.3-0.8-0.5-1.4-0.5h-3v3.8H39.8z M36.7,7.2v4.4h3.5c0.3,0,0.6-0.1,0.9-0.2
		c0.3-0.1,0.5-0.3,0.7-0.5c0.2-0.2,0.3-0.4,0.4-0.7c0.1-0.3,0.1-0.5,0.1-0.8c0-0.3-0.1-0.5-0.2-0.8S41.9,8.2,41.7,8
		c-0.2-0.2-0.4-0.4-0.7-0.5c-0.3-0.1-0.6-0.2-0.9-0.2H36.7z"/>
	<path d="M60.8,13.3h-2.1l-3.4-4.9h-1.7v4.9h-1.8V0.2h5c0.7,0,1.3,0.1,1.8,0.4c0.5,0.2,0.9,0.5,1.2,0.9c0.3,0.4,0.5,0.8,0.7,1.3
		c0.1,0.5,0.2,1,0.2,1.5c0,0.5-0.1,1-0.2,1.4C60.4,6.2,60.2,6.6,60,7c-0.3,0.4-0.6,0.7-1.1,0.9s-1,0.4-1.6,0.4L60.8,13.3z M53.6,1.9
		v4.9h3.1c0.4,0,0.7-0.1,1-0.2s0.5-0.3,0.7-0.6c0.2-0.2,0.3-0.5,0.4-0.8c0.1-0.3,0.1-0.6,0.1-0.9c0-0.3,0-0.6-0.1-0.9
		c-0.1-0.3-0.2-0.6-0.4-0.8c-0.2-0.2-0.4-0.4-0.7-0.6s-0.6-0.2-1-0.2H53.6z"/>
	<path d="M70.4,0.2v13.1h-1.8V0.2H70.4z"/>
	<path d="M86.8,13.3l-6-9.9v9.9H79V0.2h1.7l5.9,9.8V0.2h1.8v13.1H86.8z"/>
	<path d="M98.6,10l-1.3,3.3h-1.9l5-13.1h1.9l5,13.1h-1.9l-1.3-3.3H98.6z M103.6,8.4l-2.2-5.8l-2.2,5.8H103.6z"/>
	<path d="M131.6,0.2v1.7h-4v11.4h-1.8V1.9h-4V0.2H131.6z"/>
	<path d="M148.9,13.3h-1.8V7.6h-6.3v5.7H139V0.2h1.8V6h6.3V0.2h1.8V13.3z"/>
	<path d="M165.2,0.2v1.7h-6v4.2h5.2v1.7h-5.2v4h6.2v1.7h-7.9V0.2H165.2z"/>
	<path d="M175,0.2v13.1h-1.8V0.2H175z"/>
	<path d="M184.8,10.4c0.1,0.3,0.3,0.5,0.6,0.7c0.2,0.2,0.5,0.4,0.9,0.5c0.3,0.1,0.7,0.2,1.1,0.2s0.8-0.1,1.1-0.2
		c0.3-0.1,0.6-0.2,0.8-0.4s0.4-0.4,0.5-0.6c0.1-0.2,0.2-0.5,0.2-0.7c0-0.4,0-0.7-0.1-0.9c-0.1-0.3-0.3-0.5-0.5-0.7
		c-0.2-0.2-0.5-0.3-0.7-0.5s-0.6-0.2-0.9-0.3l-1.7-0.4c-0.7-0.2-1.3-0.4-1.7-0.7s-0.7-0.6-1-0.9c-0.2-0.3-0.4-0.6-0.4-1
		c-0.1-0.3-0.1-0.6-0.1-0.9c0-0.5,0.1-1,0.4-1.5s0.5-0.8,0.9-1.2c0.4-0.3,0.8-0.6,1.3-0.8c0.5-0.2,1-0.3,1.6-0.3
		c0.6,0,1.1,0.1,1.7,0.3c0.5,0.2,1,0.4,1.3,0.8c0.4,0.3,0.7,0.7,0.9,1.2c0.2,0.5,0.3,1,0.3,1.6h-1.8c0-0.7-0.2-1.2-0.7-1.6
		c-0.5-0.4-1.1-0.6-1.8-0.6c-0.3,0-0.6,0-0.9,0.1c-0.3,0.1-0.6,0.2-0.8,0.4c-0.2,0.2-0.4,0.4-0.5,0.6c-0.1,0.2-0.2,0.5-0.2,0.8
		c0,0.1,0,0.3,0.1,0.5s0.1,0.3,0.3,0.5s0.3,0.3,0.6,0.5c0.2,0.1,0.6,0.3,1,0.4l1.7,0.4c1.2,0.3,2.2,0.8,2.8,1.5s0.9,1.6,0.7,2.6
		c-0.1,0.5-0.2,0.9-0.4,1.3s-0.5,0.8-0.9,1.1s-0.8,0.6-1.3,0.7c-0.5,0.2-1.1,0.3-1.7,0.3c-0.7,0-1.3-0.1-1.8-0.3s-1-0.5-1.4-0.9
		c-0.4-0.4-0.7-0.8-1-1.3c-0.2-0.5-0.3-1-0.3-1.5h1.8C184.6,9.8,184.7,10.1,184.8,10.4z"/>
	<path d="M200.7,10.4c0.1,0.3,0.3,0.5,0.6,0.7c0.2,0.2,0.5,0.4,0.9,0.5c0.3,0.1,0.7,0.2,1.1,0.2s0.8-0.1,1.1-0.2
		c0.3-0.1,0.6-0.2,0.8-0.4s0.4-0.4,0.5-0.6c0.1-0.2,0.2-0.5,0.2-0.7c0-0.4,0-0.7-0.1-0.9c-0.1-0.3-0.3-0.5-0.5-0.7
		c-0.2-0.2-0.5-0.3-0.7-0.5s-0.6-0.2-0.9-0.3l-1.7-0.4c-0.7-0.2-1.3-0.4-1.7-0.7s-0.7-0.6-1-0.9c-0.2-0.3-0.4-0.6-0.4-1
		c-0.1-0.3-0.1-0.6-0.1-0.9c0-0.5,0.1-1,0.4-1.5s0.5-0.8,0.9-1.2c0.4-0.3,0.8-0.6,1.3-0.8c0.5-0.2,1-0.3,1.6-0.3
		c0.6,0,1.1,0.1,1.7,0.3c0.5,0.2,1,0.4,1.3,0.8c0.4,0.3,0.7,0.7,0.9,1.2c0.2,0.5,0.3,1,0.3,1.6h-1.8c0-0.7-0.2-1.2-0.7-1.6
		c-0.5-0.4-1.1-0.6-1.8-0.6c-0.3,0-0.6,0-0.9,0.1c-0.3,0.1-0.6,0.2-0.8,0.4c-0.2,0.2-0.4,0.4-0.5,0.6c-0.1,0.2-0.2,0.5-0.2,0.8
		c0,0.1,0,0.3,0.1,0.5s0.1,0.3,0.3,0.5s0.3,0.3,0.6,0.5c0.2,0.1,0.6,0.3,1,0.4l1.7,0.4c1.2,0.3,2.2,0.8,2.8,1.5s0.9,1.6,0.7,2.6
		c-0.1,0.5-0.2,0.9-0.4,1.3s-0.5,0.8-0.9,1.1s-0.8,0.6-1.3,0.7c-0.5,0.2-1.1,0.3-1.7,0.3c-0.7,0-1.3-0.1-1.8-0.3s-1-0.5-1.4-0.9
		c-0.4-0.4-0.7-0.8-1-1.3c-0.2-0.5-0.3-1-0.3-1.5h1.8C200.5,9.8,200.6,10.1,200.7,10.4z"/>
	<path d="M223.2,0.2v1.7h-6v4.2h5.2v1.7h-5.2v4h6.2v1.7h-7.9V0.2H223.2z"/>
	<path d="M239,13.3l-6-9.9v9.9h-1.8V0.2h1.7l5.9,9.8V0.2h1.8v13.1H239z"/>
</g>
</svg>
