<?xml version="1.0" encoding="utf-8"?>
<!-- Generator: Adobe Illustrator 15.0.2, SVG Export Plug-In  -->
<!DOCTYPE svg PUBLIC "-//W3C//DTD SVG 1.1//EN" "http://www.w3.org/Graphics/SVG/1.1/DTD/svg11.dtd" [
	<!ENTITY ns_flows "http://ns.adobe.com/Flows/1.0/">
]>
<svg version="1.1"
	 xmlns="http://www.w3.org/2000/svg" xmlns:xlink="http://www.w3.org/1999/xlink" xmlns:a="http://ns.adobe.com/AdobeSVGViewerExtensions/3.0/"
	 x="0px" y="0px" width="35px" height="475px" viewBox="-10.502 -15.612 35 475"
	 overflow="visible" enable-background="new -10.502 -15.612 35 475" xml:space="preserve">
<defs>
</defs>
<path d="M0.549,12.038l0.851-1.489c0.83,0.759,1.693,1.339,2.591,1.739c0.896,0.4,1.784,0.601,2.665,0.601
	c1.084,0,1.964-0.271,2.642-0.813c0.676-0.542,1.016-1.239,1.016-2.09c0-0.675-0.243-1.232-0.728-1.67
	C9.1,7.877,8.425,7.616,7.568,7.533c-0.206-0.025-0.503-0.05-0.893-0.075c-1.93-0.159-3.245-0.425-3.946-0.801
	C2.184,6.348,1.769,5.95,1.485,5.462C1.201,4.974,1.06,4.425,1.06,3.816c0-1.109,0.421-2.023,1.266-2.74
	C3.167,0.358,4.265,0,5.612,0C6.59,0,7.556,0.19,8.509,0.569c0.955,0.379,1.86,0.94,2.72,1.683l-0.851,1.427
	C9.653,2.995,8.893,2.479,8.096,2.133c-0.799-0.346-1.62-0.52-2.463-0.52c-0.887,0-1.616,0.203-2.191,0.607
	c-0.573,0.405-0.862,0.911-0.862,1.52c0,0.242,0.046,0.463,0.141,0.664c0.091,0.2,0.233,0.388,0.425,0.563
	c0.481,0.425,1.522,0.696,3.127,0.813c0.736,0.05,1.308,0.104,1.712,0.162c1.191,0.159,2.133,0.609,2.83,1.352
	c0.694,0.743,1.04,1.656,1.04,2.741c0,1.293-0.475,2.356-1.431,3.19c-0.953,0.834-2.202,1.251-3.747,1.251
	c-1.17,0-2.257-0.2-3.26-0.601C2.411,13.477,1.455,12.863,0.549,12.038z"/>
<path d="M0,41.568l5.754-13.814h1.214l5.816,13.814h-1.585l-1.596-3.716H3.115l-1.551,3.716H0z M3.787,36.237h5.168L6.36,30.119
	L3.787,36.237z"/>
<path d="M1.06,71.002V57.188h6.945c1.154,0,2.028,0.29,2.62,0.87c0.594,0.58,0.889,1.437,0.889,2.572
	c0,0.551-0.092,1.042-0.277,1.476c-0.184,0.434-0.445,0.785-0.786,1.051c0.624,0.426,1.095,0.947,1.414,1.564s0.48,1.326,0.48,2.127
	c0,1.276-0.356,2.288-1.07,3.035c-0.713,0.746-1.679,1.12-2.899,1.12H1.06z M2.516,62.643h5.616c0.617,0,1.088-0.165,1.413-0.494
	c0.328-0.33,0.49-0.803,0.49-1.421c0-0.65-0.158-1.139-0.473-1.463c-0.315-0.326-0.793-0.488-1.431-0.488H2.516V62.643z
	 M2.516,69.413h6.148c0.667,0,1.189-0.231,1.573-0.694c0.384-0.463,0.574-1.095,0.574-1.896c0-0.793-0.19-1.422-0.574-1.889
	c-0.384-0.467-0.906-0.701-1.573-0.701H2.516V69.413z"/>
<path d="M1.602,100.851V87.036h6.732c1.149,0,2.05,0.34,2.702,1.02c0.651,0.68,0.979,1.621,0.979,2.822
	c0,1.001-0.254,1.858-0.766,2.571c-0.511,0.713-1.185,1.158-2.021,1.333l2.934,6.069h-1.616l-2.935-6.044H3.06v6.044H1.602z
	 M3.06,93.193h5.179c0.738,0,1.297-0.192,1.676-0.576c0.378-0.384,0.57-0.947,0.57-1.689c0-0.726-0.192-1.291-0.57-1.696
	c-0.379-0.404-0.913-0.606-1.601-0.606H3.06V93.193z"/>
<path d="M5.674,129.478v-13.889h1.479v13.889H5.674z"/>
<path d="M1.495,158.104V144.29h0.766l7.614,10.323V144.29h1.468v13.814h-0.744l-7.647-10.323v10.323H1.495z"/>
<path d="M0,187.731l5.754-13.814h1.214l5.816,13.814h-1.585l-1.596-3.716H3.115l-1.551,3.716H0z M3.787,182.401h5.168l-2.595-6.119
	L3.787,182.401z"/>
<path d="M5.67,241.983v-12.225H0.734v-1.589h11.349v1.589H7.139v12.225H5.67z"/>
<path d="M1.457,269.61v-13.814h1.479v5.456H9.86v-5.456h1.466v13.814H9.86v-6.77H2.936v6.77H1.457z"/>
<path d="M2.225,298.237v-13.815h9.231v1.589H3.681v4.054h4.703v1.589H3.681v4.993h8.255v1.59H2.225z"/>
<path d="M5.674,326.864v-13.891h1.479v13.891H5.674z"/>
<path d="M0.549,353.413l0.851-1.489c0.83,0.76,1.693,1.339,2.591,1.739c0.896,0.401,1.784,0.602,2.665,0.602
	c1.084,0,1.964-0.271,2.642-0.813c0.676-0.542,1.016-1.239,1.016-2.09c0-0.677-0.243-1.23-0.728-1.668
	c-0.485-0.439-1.16-0.701-2.017-0.785c-0.206-0.024-0.503-0.05-0.893-0.075c-1.93-0.158-3.245-0.425-3.946-0.8
	c-0.546-0.309-0.961-0.705-1.244-1.193c-0.284-0.488-0.426-1.039-0.426-1.648c0-1.108,0.421-2.022,1.266-2.74
	c0.842-0.717,1.939-1.075,3.287-1.075c0.978,0,1.943,0.192,2.896,0.57c0.955,0.38,1.86,0.939,2.72,1.682l-0.851,1.427
	c-0.725-0.685-1.485-1.197-2.282-1.543c-0.799-0.347-1.62-0.522-2.463-0.522c-0.887,0-1.616,0.205-2.191,0.609
	c-0.573,0.405-0.862,0.91-0.862,1.519c0,0.242,0.046,0.463,0.141,0.664c0.091,0.199,0.233,0.388,0.425,0.562
	c0.481,0.425,1.522,0.696,3.127,0.812c0.736,0.05,1.308,0.104,1.712,0.163c1.191,0.158,2.133,0.609,2.83,1.352
	c0.694,0.743,1.04,1.655,1.04,2.74c0,1.294-0.475,2.356-1.431,3.191c-0.953,0.833-2.202,1.251-3.747,1.251
	c-1.17,0-2.257-0.2-3.26-0.601C2.411,354.853,1.455,354.239,0.549,353.413z"/>
<path d="M0.549,382.04l0.851-1.489c0.83,0.76,1.693,1.34,2.591,1.739c0.896,0.401,1.784,0.602,2.665,0.602
	c1.084,0,1.964-0.271,2.642-0.813c0.676-0.542,1.016-1.239,1.016-2.09c0-0.676-0.243-1.23-0.728-1.668
	c-0.485-0.438-1.16-0.702-2.017-0.785c-0.206-0.024-0.503-0.05-0.893-0.075c-1.93-0.158-3.245-0.426-3.946-0.8
	c-0.546-0.309-0.961-0.706-1.244-1.193c-0.284-0.488-0.426-1.039-0.426-1.647c0-1.11,0.421-2.023,1.266-2.741
	c0.842-0.717,1.939-1.076,3.287-1.076c0.978,0,1.943,0.192,2.896,0.572c0.955,0.379,1.86,0.938,2.72,1.681l-0.851,1.427
	c-0.725-0.685-1.485-1.197-2.282-1.543c-0.799-0.347-1.62-0.522-2.463-0.522c-0.887,0-1.616,0.204-2.191,0.609
	c-0.573,0.404-0.862,0.909-0.862,1.519c0,0.241,0.046,0.463,0.141,0.663c0.091,0.2,0.233,0.388,0.425,0.563
	c0.481,0.425,1.522,0.696,3.127,0.813c0.736,0.049,1.308,0.104,1.712,0.162c1.191,0.158,2.133,0.609,2.83,1.352
	c0.694,0.742,1.04,1.656,1.04,2.74c0,1.293-0.475,2.356-1.431,3.19c-0.953,0.835-2.202,1.252-3.747,1.252
	c-1.17,0-2.257-0.2-3.26-0.602C2.411,383.479,1.455,382.866,0.549,382.04z"/>
<path d="M1.563,412.744V398.93h9.231v1.589H3.02v4.055h4.703v1.589H3.02v4.993h8.255v1.589H1.563z"/>
<path d="M1.495,441.448v-13.814h0.766l7.614,10.323v-10.323h1.468v13.814h-0.744l-7.647-10.323v10.323H1.495z"/>
</svg>
